<svg width="883" height="1043" viewBox="0 0 883 1043" fill="none" xmlns="http://www.w3.org/2000/svg">
<path d="M882.911 528.5L881.411 994.5V1016C881.411 1029 853.25 1035.17 836.916 1026.5C586.082 881.166 72.9158 583.5 44.9158 567.5C16.9158 551.5 8.08192 523.001 6.41541 511.501L4.41199 71.9985C4.41226 46.9989 -3.08886 2.49977 45.9114 12.0001L833.911 467.5C844.407 474.001 878.411 492 882.911 528.5Z" fill="url(#paint0_linear_2074_1105)"/>
<g filter="url(#filter0_d_2074_1105)">
<rect width="1000.64" height="542.013" rx="40" transform="matrix(0.866025 0.5 -2.20305e-08 1 4 0)" fill="white"/>
</g>
<path d="M114.539 160.612C114.539 159.992 114.752 159.52 115.132 159.301C115.511 159.082 116.026 159.133 116.563 159.443L838.459 576.23C838.996 576.54 839.511 577.083 839.891 577.741C840.271 578.399 840.484 579.117 840.484 579.737L840.484 979.731C840.484 980.351 840.271 980.823 839.891 981.042C839.511 981.261 838.996 981.21 838.459 980.9L116.563 564.113C116.026 563.803 115.511 563.26 115.132 562.602C114.752 561.944 114.539 561.226 114.539 560.606L114.539 160.612Z" stroke="#FC9432" stroke-width="2"/>
<path d="M114.539 158.274L133.436 169.184L133.436 191.005L114.539 180.095L114.539 158.274Z" fill="#FC9432"/>
<path d="M128.33 182.295L119.894 177.424C118.51 176.649 117.346 174.753 117.238 173.085L117.238 172.84C117.184 171.484 117.9 170.735 119.006 170.993L119.006 170.732C119.047 169.111 119.83 168.183 121.112 168.214C122.506 168.302 124.058 169.549 125.094 171.421C125.465 172.056 125.718 172.631 125.921 173.294C126.326 173.138 126.839 173.309 127.352 173.769C128.104 174.515 128.59 175.556 128.617 176.487C129.866 177.465 130.753 179.201 130.743 180.664C130.743 183.419 128.361 182.301 128.334 182.293L128.33 182.295ZM119.334 171.692C118.375 171.373 117.728 171.992 117.782 173.153L117.782 173.36C117.876 174.708 118.821 176.232 119.941 176.847L128.364 181.71C129.387 182.184 130.186 181.734 130.277 180.594C130.372 179.312 129.525 177.627 128.361 176.845C128.209 176.738 128.114 176.528 128.141 176.38C128.168 175.674 127.804 174.837 127.223 174.237C126.778 173.835 126.333 173.773 126.063 174.05C125.995 174.104 125.911 174.106 125.803 174.016C125.708 173.946 125.641 173.837 125.6 173.705C125.398 172.964 125.128 172.325 124.723 171.632C123.819 170.019 122.496 168.943 121.308 168.881C120.218 168.875 119.553 169.672 119.519 171.063C119.503 171.209 119.503 171.345 119.519 171.507C119.53 171.669 119.452 171.768 119.317 171.721L119.334 171.692Z" fill="white"/>
<path d="M422.042 646.964L462.537 670.344L462.537 717.103L422.042 693.723L422.042 646.964Z" fill="#1C7B68"/>
<path d="M445.671 699.735C445.559 699.671 445.478 699.593 445.401 699.482L442.29 695.543L439.185 695.893C439.023 695.928 438.834 695.819 438.645 695.582L432.301 687.45C432.132 687.224 432.055 686.996 432.055 686.77L432.055 682.296L429.058 678.618C428.896 678.427 428.788 678.143 428.788 677.924L428.788 670.552C428.788 670.334 428.896 670.174 429.058 670.174L432.028 669.94L432.028 665.459C432.028 665.245 432.109 665.07 432.298 665.085L438.642 664.279C438.81 664.251 438.996 664.358 439.182 664.59L442.263 668.512L445.367 668.162C445.536 668.134 445.721 668.241 445.907 668.473L452.285 676.629C452.447 676.851 452.528 677.089 452.528 677.307L452.528 681.78L455.524 685.458C455.686 685.649 455.794 685.934 455.794 686.152L455.794 693.524C455.794 693.742 455.686 693.902 455.524 693.902L452.555 694.136L452.555 698.617C452.555 698.835 452.447 698.991 452.285 698.995L445.941 699.802C445.856 699.819 445.772 699.802 445.671 699.743L445.671 699.735ZM442.836 694.787L445.671 698.379L451.475 697.639L451.475 693.131C451.475 692.913 451.583 692.784 451.745 692.753L454.148 692.566L452.123 690.134C451.472 690.389 450.503 689.737 449.93 688.681C449.39 687.613 449.447 686.512 450.098 686.226C450.773 685.984 451.745 686.639 452.285 687.676C452.555 688.182 452.663 688.619 452.663 689.09L452.663 689.343L454.742 691.868L454.742 685.879L451.745 682.228C451.553 681.992 451.475 681.761 451.475 681.538L451.475 679.836L449.956 678.959C449.663 679.736 448.775 679.695 447.966 678.881C447.179 678.084 446.751 676.8 447.044 676.05C447.368 675.302 448.259 675.337 449.042 676.136C449.498 676.594 449.795 677.139 449.953 677.733L451.472 678.61L451.472 677.04L445.667 669.597L442.833 669.909L442.833 676.779L445.826 680.494C446.501 680.311 447.473 681.032 447.986 682.115C448.499 683.198 448.364 684.223 447.689 684.43C447.014 684.64 446.035 683.915 445.529 682.832C445.31 682.363 445.202 681.957 445.202 681.575C445.202 681.42 445.229 681.342 445.256 681.229L442.009 677.211C441.848 677.001 441.74 676.744 441.74 676.49L441.74 669.282L438.905 665.689L436.34 666.001L436.34 670.416L435.26 669.792L435.26 666.129L433.101 666.429L433.101 670.587L435.8 673.911L438.5 673.704L438.5 670.494L439.58 671.117L439.58 674.675C439.58 674.897 439.472 675.021 439.31 675.053L436.34 675.259L436.34 678.252L439.31 682.207C439.472 682.425 439.553 682.659 439.553 682.885L439.553 684.962L441.713 684.728L441.713 682.078L438.878 678.493L439.418 677.733L442.549 681.685C442.711 681.907 442.819 682.16 442.819 682.378L442.819 690.471L445.283 691.894C445.576 691.151 446.464 691.192 447.274 692.007C447.898 692.612 448.276 693.493 448.276 694.249C448.222 695.231 447.466 695.547 446.629 695.001C446.008 694.576 445.522 693.922 445.279 693.15L442.792 691.714L442.836 694.787ZM436.674 691.58L438.915 694.448L441.75 694.136L441.75 686.195L435.729 686.849L435.19 685.431L438.51 685.08L438.51 682.587L435.81 678.986L432.784 679.226L432.244 677.807L435.301 677.624L435.301 674.663L432.601 671.339L429.902 671.546L429.902 673.845L432.196 673.595L432.736 674.975L429.868 675.24L429.868 678.17L432.568 681.482L435.301 681.209L435.841 682.589L433.107 682.865L433.107 687.023L435.544 690.163L438.351 689.863L438.405 689.957L438.513 689.93L439.053 691.313L436.674 691.58ZM446.747 692.766C446.501 692.624 446.285 692.749 446.285 693.033C446.285 693.353 446.501 693.731 446.744 693.871C447.014 694.027 447.226 693.896 447.226 693.581C447.199 693.285 447.011 692.957 446.741 692.801L446.747 692.766ZM451.117 687.633C450.847 687.477 450.631 687.57 450.631 687.886C450.631 688.17 450.851 688.546 451.121 688.702C451.364 688.843 451.583 688.72 451.583 688.435C451.583 688.151 451.367 687.773 451.121 687.631L451.117 687.633ZM446.744 681.893C446.498 681.751 446.282 681.848 446.282 682.16C446.282 682.444 446.498 682.822 446.741 682.963C447.011 683.118 447.223 682.988 447.223 682.704C447.196 682.407 447.007 682.045 446.737 681.889L446.744 681.893ZM448.499 676.952C448.229 676.796 448.036 676.939 448.036 677.254C448.036 677.539 448.225 677.897 448.495 678.053C448.765 678.209 448.951 678.067 448.951 677.782L448.951 677.751C448.951 677.467 448.735 677.089 448.492 676.948L448.499 676.952Z" fill="white"/>
<path d="M536.776 605.563L577.271 628.943L577.271 675.702L536.776 652.322L536.776 605.563Z" fill="#1C7B68"/>
<path d="M560.405 658.331C560.293 658.266 560.212 658.188 560.135 658.081L557.023 654.142L553.919 654.493C553.757 654.524 553.568 654.415 553.379 654.181L547.035 646.045C546.866 645.823 546.788 645.591 546.788 645.369L546.788 640.899L543.792 637.213C543.63 637.026 543.522 636.746 543.522 636.523L543.522 629.159C543.522 628.937 543.63 628.777 543.792 628.777L546.762 628.543L546.762 624.062C546.762 623.844 546.843 623.673 547.031 623.684L553.376 622.878C553.544 622.847 553.73 622.954 553.915 623.189L556.996 627.111L560.101 626.761C560.27 626.729 560.455 626.837 560.641 627.072L567.019 635.228C567.181 635.446 567.262 635.68 567.262 635.902L567.262 640.375L570.258 644.061C570.42 644.248 570.528 644.529 570.528 644.751L570.528 652.116C570.528 652.338 570.42 652.497 570.258 652.497L567.289 652.731L567.289 657.212C567.289 657.431 567.181 657.586 567.019 657.586L560.675 658.397C560.59 658.411 560.506 658.393 560.405 658.335L560.405 658.331ZM557.57 653.39L560.405 656.975L566.209 656.234L566.209 651.73C566.209 651.512 566.317 651.383 566.479 651.352L568.882 651.165L566.857 648.737C566.206 648.993 565.237 648.34 564.663 647.284C564.123 646.212 564.181 645.112 564.832 644.825C565.507 644.584 566.479 645.242 567.019 646.282C567.289 646.781 567.397 647.222 567.397 647.693L567.397 647.942L569.475 650.467L569.475 644.482L566.479 640.831C566.287 640.595 566.209 640.364 566.209 640.141L566.209 638.439L564.69 637.562C564.397 638.343 563.509 638.302 562.699 637.488C561.913 636.683 561.485 635.399 561.778 634.657C562.102 633.897 562.993 633.94 563.776 634.739C564.231 635.197 564.528 635.746 564.687 636.34L566.206 637.217L566.206 635.643L560.401 628.2L557.567 628.512L557.56 635.374L560.563 639.095C561.238 638.916 562.207 639.631 562.723 640.716C563.229 641.796 563.094 642.82 562.419 643.035C561.744 643.241 560.776 642.522 560.26 641.437C560.047 640.964 559.939 640.558 559.939 640.18C559.939 640.025 559.966 639.947 559.993 639.834L556.747 635.816C556.585 635.598 556.477 635.349 556.477 635.095L556.477 627.887L553.642 624.294L551.078 624.614L551.078 629.017L549.998 628.393L549.998 624.746L547.838 625.042L547.838 629.192L550.538 632.504L553.237 632.309L553.237 629.091L554.317 629.714L554.317 633.276C554.317 633.494 554.209 633.622 554.047 633.654L551.078 633.86L551.078 636.853L554.047 640.804C554.209 641.022 554.29 641.256 554.29 641.478L554.29 643.559L556.45 643.325L556.45 640.683L553.615 637.098L554.155 636.335L557.287 640.286C557.449 640.504 557.557 640.753 557.557 640.975L557.557 649.068L560.02 650.491C560.314 649.748 561.201 649.789 562.011 650.6C562.635 651.214 563.013 652.094 563.013 652.854C562.959 653.828 562.203 654.148 561.366 653.598C560.746 653.177 560.26 652.519 560.017 651.751L557.53 650.315L557.57 653.39ZM551.408 650.175L553.649 653.047L556.484 652.735L556.484 644.798L550.463 645.445L549.923 644.042L553.244 643.687L553.244 641.194L550.544 637.593L547.517 637.833L546.977 636.414L550.035 636.223L550.035 633.262L547.335 629.938L544.636 630.145L544.636 632.444L546.93 632.194L547.47 633.578L544.602 633.839L544.602 636.769L547.301 640.089L550.035 639.808L550.575 641.188L547.841 641.468L547.841 645.63L550.278 648.77L553.085 648.466L553.139 648.56L553.247 648.525L553.787 649.912L551.408 650.175ZM561.485 651.371C561.238 651.229 561.022 651.358 561.022 651.642C561.022 651.954 561.238 652.332 561.481 652.472C561.751 652.628 561.964 652.505 561.964 652.19C561.937 651.89 561.748 651.558 561.478 651.403L561.485 651.371ZM565.855 646.242C565.585 646.086 565.369 646.183 565.369 646.499C565.369 646.779 565.588 647.159 565.858 647.315C566.101 647.455 566.32 647.325 566.32 647.044C566.32 646.76 566.104 646.382 565.858 646.24L565.855 646.242ZM561.485 640.5C561.238 640.358 561.022 640.451 561.022 640.767C561.022 641.051 561.238 641.429 561.481 641.57C561.751 641.725 561.964 641.595 561.964 641.31C561.937 641.01 561.748 640.652 561.478 640.496L561.485 640.5ZM563.239 635.559C562.969 635.403 562.777 635.545 562.777 635.861C562.777 636.142 562.966 636.504 563.236 636.66C563.506 636.816 563.692 636.67 563.692 636.389L563.692 636.35C563.692 636.077 563.476 635.695 563.233 635.555L563.239 635.559Z" fill="white"/>
<path d="M752.746 558.804L793.24 582.184L793.24 628.942L752.746 605.563L752.746 558.804Z" fill="#3F8624"/>
<path d="M785.914 602.911C785.759 601.856 784.801 600.616 784.126 599.728C783.923 599.455 783.349 598.875 783.302 598.629C783.302 598.473 783.302 598.317 783.353 598.191L783.893 594.037L784.365 590.343C784.493 589.233 784.001 588.138 783.15 586.953C781.413 584.547 779.135 582.675 777.093 581.118C774.4 579.068 772.048 577.613 769.332 576.364L769.332 576.356C766.868 575.129 764.83 574.509 762.549 574.311C761.415 574.279 759.883 574.369 760.096 576.175C760.612 581.531 761.26 586.963 761.85 592.362C762.114 594.824 762.397 597.298 762.66 599.757C762.761 600.79 763.224 601.797 764 602.623C765.653 604.607 767.725 606.118 769.615 607.396C772.227 609.185 774.454 610.377 777.039 611.309C778.591 611.893 781.493 613.004 781.75 610.903C782.06 608.304 782.391 605.717 782.708 603.118L782.837 602.354C783.714 603.11 786.225 605.09 785.914 602.915L785.914 602.911ZM772.203 579.078C775.463 580.96 779.162 583.532 782.057 587.047C782.529 587.6 783.559 588.818 783.248 589.418C782.945 589.994 781.956 589.801 781.358 589.729C780.481 589.601 779.681 589.385 778.75 589.069C774.714 587.674 771.14 585.7 767.054 582.589C765.218 581.315 763.689 579.906 762.036 578.016C761.651 577.51 761.003 576.695 761.186 576.177C761.314 575.908 761.523 575.78 761.806 575.756C763.072 575.552 764.236 575.659 765.711 576.199C767.938 576.861 769.895 577.707 772.203 579.07L772.203 579.078ZM780.687 610.258C780.586 610.921 779.55 610.693 779.06 610.605C777.974 610.407 777.015 610.106 775.878 609.606C773.368 608.53 771.194 607.276 768.657 605.436C767.081 604.371 765.761 603.204 764.337 601.571C763.949 601.16 763.716 600.62 763.689 600.133C763.15 594.861 762.556 589.581 761.962 584.309L761.341 578.581C762.633 580.138 763.824 581.325 765.272 582.449C766.848 583.729 768.167 584.677 769.77 585.728C772.875 587.769 775.541 589.153 778.618 590.275C780.248 590.931 781.595 591.175 783.039 591.113L781.905 600.223C779.003 597.456 776.624 594.992 773.908 591.892C773.779 591.76 773.671 591.639 773.57 591.514C773.415 591.3 773.469 591.393 773.388 591.159C773.26 590.707 773.236 590.448 772.949 589.971C772.689 589.599 772.409 589.348 772.095 589.194C771.421 588.835 770.904 589.223 770.958 590.033C771.009 590.815 771.599 591.752 772.274 592.079C772.457 592.153 772.612 592.18 772.821 592.208C773.023 592.262 773.023 592.262 773.236 592.51C776.003 595.666 778.413 598.214 781.335 601.024C781.75 601.419 781.75 601.263 781.75 601.668C781.723 601.965 781.699 602.232 781.649 602.514L781.311 605.281L780.687 610.258ZM772.359 590.682C772.359 590.877 772.149 590.717 772.099 590.598C772.021 590.429 772.359 590.468 772.359 590.686L772.359 590.682ZM782.988 601.195L783.147 599.911C783.687 600.597 784.598 601.657 784.855 602.495C784.315 602.428 783.481 601.635 782.992 601.197L782.988 601.195Z" fill="white"/>
<path d="M530.027 484.77L570.522 508.149L570.522 554.908L530.027 531.528L530.027 484.77Z" fill="#3B48CC"/>
<path d="M556.187 517.466C556.187 515.673 553.116 513.055 550.247 511.399C547.379 509.743 544.308 508.812 544.308 510.612C544.308 510.717 544.322 510.795 544.332 510.898L544.332 522.144C544.308 524.016 547.393 526.588 550.271 528.25C553.166 529.921 556.21 530.853 556.21 529.052L556.21 517.479L556.187 517.466ZM550.261 512.654C553.406 514.469 555.12 516.453 555.12 516.854C555.12 517.263 553.416 517.273 550.261 515.451C547.096 513.624 545.402 511.672 545.402 511.243C545.402 510.846 547.106 510.836 550.261 512.657L550.261 512.654ZM555.12 528.419C555.12 528.82 553.416 528.811 550.261 526.989C547.106 525.167 545.402 523.209 545.402 522.804L545.402 520.832C546.535 522.212 548.452 523.654 550.261 524.698C552.073 525.744 553.966 526.502 555.12 526.459L555.12 528.419ZM555.12 524.865C555.12 525.267 553.416 525.277 550.261 523.455C547.096 521.627 545.402 519.656 545.402 519.254L545.415 519.262L545.415 516.885C546.562 518.257 548.466 519.691 550.274 520.735C552.083 521.779 553.976 522.537 555.134 522.516L555.12 524.865ZM555.12 520.891C555.12 521.296 553.416 521.321 550.261 519.5C547.096 517.672 545.402 515.689 545.402 515.284L545.415 515.292L545.415 512.868C546.573 514.238 548.452 515.65 550.274 516.702C552.097 517.754 554.013 518.522 555.134 518.444L555.12 520.891ZM538.619 527.457L542.176 529.51L542.176 530.757L537.316 527.952C537.019 527.78 536.776 527.359 536.776 527.016L536.776 521.405L537.856 522.029L537.856 526.12L541.906 523.79L542.661 525.099L538.619 527.457ZM563.773 536.988L563.773 542.599C563.773 542.949 563.536 543.086 563.233 542.91L558.373 540.105L558.373 538.858L561.93 540.911L557.941 533.995L558.707 533.561L562.696 540.461L562.696 536.37L563.773 536.988ZM563.773 512.677L563.773 518.288L562.693 517.665L562.693 513.546L558.711 515.857L557.941 514.532L561.923 512.233L558.373 510.183L558.373 508.936L563.233 511.742C563.536 511.917 563.773 512.326 563.773 512.677ZM542.661 505.78L541.909 506.218L537.849 499.199L537.849 503.306L536.77 502.682L536.77 497.071C536.77 496.721 537.016 496.59 537.316 496.763L542.169 499.565L542.169 500.812L538.612 498.758L542.661 505.78ZM541.993 520.642C538.693 517.372 536.803 514.177 536.803 511.905C536.803 509.63 538.693 508.632 541.993 509.158L542.364 510.549C539.564 510.101 537.883 510.83 537.883 512.533C537.883 514.232 539.56 516.899 542.361 519.689L541.993 520.642ZM558.255 530.171L557.911 528.783C560.914 529.348 562.703 528.628 562.703 526.855C562.703 525.078 560.914 522.296 557.911 519.385L558.258 518.409C561.768 521.799 563.776 525.109 563.776 527.478C563.776 529.836 561.765 530.817 558.258 530.169L558.255 530.171Z" fill="white"/>
<path d="M63.7755 371.442L37.9131 356.51C37.6162 356.339 37.3462 355.887 37.3462 355.52L37.3462 353.525C37.3462 346.434 41.3686 342.822 47.3078 344.587C47.4698 344.641 47.6048 344.739 47.7397 344.902C49.7375 347.303 51.9511 348.581 53.9489 348.487C54.0838 348.479 54.2188 348.538 54.3538 348.651C60.32 353.763 64.3424 362.024 64.3424 369.108L64.3424 371.107C64.3424 371.473 64.0724 371.613 63.7755 371.442ZM38.507 355.517L63.1816 369.762L63.1816 368.438C63.2086 362.082 59.6181 354.659 54.2998 349.991C53.166 349.98 52.1131 349.664 50.8443 348.931C49.5755 348.199 48.5226 347.318 47.3888 346.001C42.0705 344.528 38.48 347.805 38.507 354.2L38.507 355.517Z" fill="black"/>
<path d="M50.8513 348.9C49.6094 348.183 48.5498 347.26 47.4632 345.947C44.1022 341.824 42.9076 336.213 44.7872 333.421C46.6669 330.629 50.9188 331.701 54.2629 335.802C56.5374 338.576 57.8332 341.877 57.8332 344.893C57.8332 347.917 56.5104 349.728 54.2123 349.836C53.1223 349.877 52.0796 349.598 50.8513 348.889L50.8513 348.9ZM50.8513 334.16C48.6173 332.804 46.7107 333.008 45.6376 334.641C44.1191 337.03 45.1652 341.694 47.9795 345.084L47.9728 345.08C49.795 347.278 51.8063 348.439 53.6319 348.347C55.5554 348.258 56.669 346.726 56.6555 344.17C56.6453 340.47 54.0402 335.985 50.8513 334.164L50.8513 334.16Z" fill="black"/>
<path d="M677.94 463.522L652.077 448.59C651.78 448.419 651.51 447.967 651.51 447.6L651.51 445.605C651.51 438.521 655.533 434.901 661.472 436.667C661.634 436.721 661.769 436.818 661.904 436.982C663.901 439.39 666.115 440.668 668.113 440.567C668.248 440.567 668.383 440.625 668.518 440.738C674.484 445.847 678.506 454.111 678.506 461.195L678.506 463.194C678.506 463.557 678.236 463.701 677.94 463.529L677.94 463.522ZM652.671 447.596L677.346 461.842L677.346 460.517C677.373 454.162 673.782 446.743 668.464 442.075C667.33 442.063 666.277 441.748 665.008 441.015C663.74 440.283 662.687 439.402 661.553 438.085C656.235 436.612 652.644 439.885 652.671 446.275L652.671 447.596Z" fill="black"/>
<path d="M665.015 440.98C663.774 440.263 662.714 439.34 661.627 438.026C658.266 433.912 657.072 428.305 658.951 425.505C660.831 422.713 665.083 423.785 668.427 427.886C670.701 430.664 671.997 433.972 671.997 436.98C671.997 440.008 670.674 441.816 668.373 441.921C667.286 441.968 666.247 441.691 665.015 440.98ZM665.015 426.239C662.781 424.883 660.875 425.088 659.802 426.721C658.283 429.109 659.329 433.766 662.144 437.163C663.966 439.357 665.97 440.514 667.796 440.427C669.719 440.329 670.833 438.798 670.82 436.25C670.809 432.542 668.204 428.061 665.015 426.235L665.015 426.239Z" fill="black"/>
<path d="M644.761 496.459L685.256 519.839L685.256 566.598L644.761 543.218L644.761 496.459Z" fill="#D6242D"/>
<path d="M670.954 549.932C670.829 549.86 670.735 549.743 670.637 549.632C670.492 549.423 670.408 549.195 670.408 548.985L670.408 520.306C670.408 520.092 670.509 519.936 670.667 519.911C670.836 519.891 671.039 520.008 671.207 520.195L678.226 528.23C678.415 528.429 678.53 528.705 678.53 528.943L678.53 550.982C678.537 551.286 678.395 551.442 678.159 551.391L671.14 550.039L670.954 549.932ZM671.494 521.947L671.494 548.747L677.433 549.901L677.433 528.695L671.494 521.947ZM659.066 543.068L658.897 542.971L651.878 536.222C651.649 536 651.507 535.649 651.507 535.384L651.507 513.341C651.507 513.107 651.625 512.961 651.811 512.979L658.83 513.049C659.008 513.062 659.201 513.173 659.376 513.396C659.535 513.604 659.623 513.865 659.623 514.075L659.623 542.754C659.623 542.969 659.542 543.097 659.396 543.138C659.295 543.169 659.194 543.138 659.059 543.06L659.066 543.068ZM652.587 535.587L658.533 541.291L658.533 514.463L652.587 514.381L652.587 535.587Z" fill="white"/>
<path d="M670.407 528.411L668.787 527.476L668.787 526.229L670.407 527.164L670.407 528.411ZM667.168 526.541L665.548 525.606L665.548 524.359L667.168 525.294L667.168 526.541ZM663.935 524.674L662.315 523.739L662.315 522.492L663.935 523.428L663.935 524.674ZM660.695 522.804L659.069 521.865L659.069 520.618L660.689 521.553L660.695 522.804ZM670.407 542.127L668.787 541.192L668.787 539.945L670.407 540.88L670.407 542.127ZM667.168 540.257L665.548 539.322L665.548 538.075L667.168 539.01L667.168 540.257ZM663.935 538.39L662.315 537.455L662.315 536.208L663.935 537.143L663.935 538.39ZM660.695 536.52L659.069 535.581L659.069 534.334L660.689 535.269L660.695 536.52ZM662.639 532.304L660.608 529.132C660.382 528.78 660.355 528.363 660.547 528.216L660.608 528.181L662.632 527.351L663.334 528.7L661.789 529.358L663.334 531.77L662.639 532.304ZM667.384 535.043L666.682 533.691L668.227 533.075L666.675 530.66L667.384 530.095L669.408 533.259C669.638 533.613 669.665 534.022 669.469 534.174L669.408 534.202L667.384 535.043Z" fill="white"/>
<path d="M663.422 534.069L665.569 527.983L666.591 528.974L664.445 535.061L663.426 534.071L663.422 534.069Z" fill="white"/>
<path d="M310.683 475.028L351.177 498.408L351.177 545.167L310.683 521.787L310.683 475.028Z" fill="#D6242D"/>
<path d="M336.876 528.501C336.751 528.428 336.657 528.312 336.559 528.201C336.41 527.99 336.329 527.764 336.329 527.554L336.329 498.875C336.329 498.661 336.431 498.505 336.589 498.479C336.758 498.46 336.96 498.577 337.129 498.764L344.148 506.799C344.337 506.997 344.452 507.274 344.452 507.512L344.452 529.551C344.459 529.855 344.317 530.01 344.081 529.96L337.062 528.608L336.876 528.501ZM337.416 500.515L337.416 527.316L343.355 528.469L343.355 507.264L337.416 500.515ZM324.988 521.637L324.819 521.539L317.8 514.79C317.57 514.568 317.429 514.218 317.429 513.953L317.429 491.91C317.429 491.676 317.547 491.53 317.732 491.547L324.751 491.618C324.93 491.631 325.123 491.742 325.298 491.961C325.457 492.169 325.544 492.434 325.544 492.648L325.544 521.327C325.544 521.537 325.463 521.67 325.318 521.703C325.217 521.738 325.116 521.711 324.981 521.633L324.988 521.637ZM318.509 514.155L324.454 519.86L324.454 493.032L318.509 492.95L318.509 514.155Z" fill="white"/>
<path d="M336.329 506.98L334.709 506.044L334.709 504.798L336.329 505.733L336.329 506.98ZM333.09 505.109L331.47 504.174L331.47 502.927L333.09 503.862L333.09 505.109ZM329.857 503.243L328.237 502.308L328.237 501.061L329.857 501.996L329.857 503.243ZM326.617 501.373L324.991 500.433L324.991 499.187L326.61 500.122L326.617 501.373ZM336.329 520.696L334.709 519.76L334.709 518.514L336.329 519.449L336.329 520.696ZM333.09 518.825L331.47 517.89L331.47 516.643L333.09 517.578L333.09 518.825ZM329.857 516.959L328.237 516.024L328.237 514.777L329.857 515.712L329.857 516.959ZM326.617 515.088L324.991 514.149L324.991 512.902L326.61 513.838L326.617 515.088ZM328.561 510.872L326.536 507.704C326.3 507.346 326.276 506.931 326.469 506.785C326.489 506.769 326.509 506.761 326.536 506.754L328.554 505.92L329.256 507.268L327.711 507.927L329.256 510.339L328.561 510.872ZM333.306 513.612L332.604 512.26L334.149 511.644L332.597 509.228L333.299 508.659L335.33 511.827C335.56 512.182 335.583 512.589 335.391 512.743L335.33 512.77L333.306 513.612Z" fill="white"/>
<path d="M329.344 512.638L331.49 506.552L332.513 507.543L330.367 513.63L329.348 512.64L329.344 512.638Z" fill="white"/>
<path d="M422.042 539.322L462.537 562.701L462.537 609.46L422.042 586.081L422.042 539.322Z" fill="#D86613"/>
<path d="M454.708 597.147L448.06 593.309C447.841 593.182 447.665 592.956 447.581 592.689L438.166 564.529L434.184 562.23C433.88 562.054 433.644 561.637 433.644 561.294L433.644 554.436C433.644 554.094 433.88 553.949 434.184 554.125L442.502 558.927C442.722 559.054 442.897 559.28 442.981 559.547L452.363 587.688L454.711 589.044C455.015 589.219 455.251 589.636 455.251 589.979L455.251 596.837C455.251 597.18 455.015 597.324 454.711 597.149L454.708 597.147ZM448.397 592.257L454.168 595.588L454.168 589.977L452.008 588.73C451.792 588.605 451.62 588.381 451.536 588.114L442.155 559.973L434.731 555.687L434.731 561.298L438.51 563.48C438.723 563.603 438.895 563.827 439.003 564.108L448.397 592.257Z" fill="white"/>
<path d="M436.877 586.852L429.864 582.804C429.672 582.692 429.503 582.478 429.399 582.25C429.291 581.977 429.291 581.751 429.375 581.613L436.725 568.139C436.809 567.961 436.995 567.936 437.204 568.057C437.417 568.18 437.595 568.415 437.693 568.678L441.203 579.059C441.287 579.279 441.287 579.47 441.203 579.604L437.369 586.735C437.295 586.942 437.099 586.981 436.877 586.852ZM430.725 582.046L436.546 585.406L440.116 578.755L437.214 570.112L430.725 582.046Z" fill="white"/>
<path d="M374.799 395.148L415.293 418.528L415.293 465.287L374.799 441.907L374.799 395.148Z" fill="#3B48CC"/>
<path d="M401.937 436.059L398.353 438.1C399.035 438.276 399.585 438.344 400.209 438.299C400.58 438.763 400.783 439.285 400.85 439.792C400.85 440.945 398.758 440.98 395.654 439.686C394.628 439.25 393.781 438.823 392.751 438.229L392.222 437.923C387.855 435.312 384.663 431.883 384.663 430.45C384.713 430.011 384.933 429.764 385.304 429.698C386.991 431.763 389.745 434.007 392.762 435.749L392.812 435.778L393.126 434.712L392.755 434.498C389.785 432.784 387.028 430.506 385.577 428.608C384.993 427.835 384.666 427.147 384.666 426.746L384.666 423.851C386.313 426.267 389.603 428.914 392.765 430.74C393.183 430.981 393.609 431.227 394.027 431.437L394.341 430.372C393.787 430.083 393.295 429.83 392.762 429.522C388.128 426.847 384.663 423.194 384.663 421.729C384.713 421.263 384.933 421.016 385.304 420.981C386.789 422.804 389.083 424.722 391.675 426.374L391.709 425.146C389.158 423.518 386.843 421.558 385.577 419.861C384.993 419.118 384.68 418.438 384.666 417.994L384.666 415.13C386.313 417.542 389.603 420.186 392.765 422.012L392.866 422.07L393.457 421.164L392.758 420.761C388.125 418.086 384.659 414.468 384.659 412.968C384.659 411.51 388.125 411.859 392.758 414.534C394.388 415.475 395.785 416.469 397.381 417.827L400.358 419.545C398.721 417.447 395.93 415.118 392.755 413.285C388.307 410.717 383.569 409.509 383.569 412.346L383.569 417.357C383.603 418.125 383.88 418.908 384.396 419.674C383.88 419.874 383.603 420.338 383.569 421.067L383.569 426.054C383.603 426.845 383.88 427.628 384.396 428.425C383.88 428.595 383.603 429.058 383.569 429.818L383.569 434.919C383.714 437.746 388.361 441.894 392.748 444.427C397.135 446.959 401.785 448.179 401.934 445.494L401.934 440.382C401.913 439.63 401.62 438.798 401.107 438.034C401.62 437.863 401.896 437.372 401.934 436.649L401.937 436.059ZM400.857 444.775C400.857 446.24 397.381 445.886 392.758 443.217C388.125 440.542 384.659 436.92 384.659 435.424L384.659 432.56C386.306 434.944 389.596 437.623 392.758 439.449C395.913 441.27 399.204 442.391 400.857 441.911L400.857 444.775Z" fill="white"/>
<path d="M386.947 419.319C386.947 419.747 386.644 419.923 386.273 419.709C385.901 419.494 385.598 418.968 385.598 418.54C385.598 418.111 385.901 417.936 386.273 418.15C386.644 418.364 386.947 418.89 386.947 419.319ZM386.947 428.047C386.947 428.476 386.644 428.651 386.273 428.437C385.901 428.223 385.598 427.696 385.598 427.268C385.598 426.839 385.901 426.664 386.273 426.878C386.644 427.093 386.947 427.619 386.947 428.047ZM386.947 436.776C386.947 437.204 386.644 437.379 386.273 437.165C385.901 436.951 385.598 436.425 385.598 435.996C385.598 435.568 385.901 435.392 386.273 435.607C386.644 435.821 386.947 436.347 386.947 436.776ZM394.098 438.387C394.004 438.332 393.923 438.262 393.828 438.145C393.612 437.872 393.518 437.518 393.585 437.284L396.615 427.363L393.558 425.598C393.261 425.446 393.018 425.029 393.018 424.671C393.018 424.566 393.028 424.462 393.086 424.414L396.319 418.791C396.413 418.631 396.588 418.604 396.804 418.729L403.823 422.781C404.12 422.933 404.363 423.35 404.377 423.697C404.39 423.782 404.377 423.841 404.363 423.923L402.97 427.887L406 429.637C406.304 429.832 406.54 430.245 406.54 430.584C406.54 430.755 406.489 430.855 406.395 430.929L394.517 438.41C394.405 438.494 394.27 438.482 394.095 438.381L394.098 438.387ZM394.436 424.873L397.344 426.553C397.513 426.65 397.668 426.826 397.776 427.036C397.871 427.258 397.911 427.472 397.857 427.628L395.259 436.103L404.718 430.175L402.207 428.725C401.903 428.55 401.647 428.148 401.633 427.802C401.633 427.716 401.633 427.634 401.66 427.583L403.044 423.59L397.105 420.161L394.436 424.873Z" fill="white"/>
<path d="M698.754 697.125L739.248 720.504L739.248 767.263L698.754 743.884L698.754 697.125Z" fill="#D86613"/>
<path d="M731.419 754.95L724.771 751.112C724.552 750.985 724.377 750.759 724.292 750.492L714.877 722.332L710.895 720.033C710.592 719.857 710.355 719.441 710.355 719.098L710.355 712.24C710.355 711.897 710.592 711.753 710.895 711.928L719.214 716.73C719.433 716.857 719.608 717.083 719.693 717.35L729.074 745.495L731.423 746.851C731.726 747.026 731.963 747.443 731.963 747.786L731.963 754.644C731.963 754.987 731.726 755.131 731.423 754.956L731.419 754.95ZM725.109 750.06L730.879 753.391L730.879 747.78L728.72 746.533C728.504 746.409 728.332 746.185 728.247 745.918L718.866 717.777L711.442 713.49L711.442 719.102L715.222 721.284C715.434 721.406 715.606 721.63 715.714 721.911L725.109 750.06Z" fill="white"/>
<path d="M713.588 744.655L706.576 740.607C706.383 740.496 706.215 740.281 706.11 740.053C706.002 739.785 706.002 739.555 706.086 739.416L713.436 725.946C713.521 725.761 713.706 725.739 713.915 725.86C714.128 725.983 714.307 726.223 714.405 726.493L717.914 736.87C717.999 737.086 717.999 737.277 717.914 737.415L714.081 744.546C714.006 744.753 713.811 744.792 713.588 744.663L713.588 744.655ZM707.436 739.857L713.257 743.217L716.828 736.558L713.926 727.916L707.436 739.857Z" fill="white"/>
<path d="M351.346 508.227L416.515 545.852" stroke="black"/>
<path d="M351.353 508.426L351.177 508.324L351.177 507.95L351.353 508.051L351.353 508.426Z" fill="white" stroke="white" stroke-width="0.05"/>
<path d="M421.499 548.73L416.684 547.762L416.684 544.149L421.499 548.73Z" fill="black" stroke="black"/>
<path d="M421.874 574.792L356.711 537.171" stroke="black"/>
<path d="M422.042 575.073L421.874 574.975L421.874 574.605L422.042 574.702L422.042 575.073Z" fill="white" stroke="white" stroke-width="0.05"/>
<path d="M351.724 534.291L356.54 535.263L356.54 538.871L351.724 534.291Z" fill="black" stroke="black"/>
<path d="M462.706 571.227L531.249 610.8" stroke="black"/>
<path d="M462.712 571.418L462.537 571.316L462.537 570.946L462.712 571.048L462.712 571.418Z" fill="white" stroke="white" stroke-width="0.05"/>
<path d="M536.233 613.678L531.417 612.706L531.417 609.094L536.233 613.678Z" fill="black" stroke="black"/>
<path d="M536.607 639.736L468.071 600.167" stroke="black"/>
<path d="M536.777 640.017L536.608 639.919L536.608 639.549L536.777 639.647L536.777 640.017Z" fill="white" stroke="white" stroke-width="0.05"/>
<path d="M463.083 597.287L467.899 598.259L467.899 601.871L463.083 597.287Z" fill="black" stroke="black"/>
<path d="M434.057 653.524L434.057 606.997Z" fill="black"/>
<path d="M434.057 653.524L434.057 606.997" stroke="black"/>
<path d="M433.9 653.811L433.58 653.625L433.58 653.431L433.9 653.616L433.9 653.811Z" fill="white" stroke="white" stroke-width="0.05"/>
<path d="M434.058 600.086L435.935 607.847L432.176 605.677L434.058 600.086Z" fill="black" stroke="black"/>
<path d="M452.993 657.024L452.993 610Z" fill="black"/>
<path d="M452.993 657.024L452.993 610" stroke="black"/>
<path d="M452.993 664.009L451.096 656.165L454.895 658.358L452.993 664.009Z" fill="black" stroke="black"/>
<path d="M452.994 619.735L452.994 619.54M426.976 541.975L426.976 469.401C426.976 468.781 426.763 468.063 426.383 467.406C426.003 466.748 425.488 466.205 424.951 465.894L420.824 463.512" stroke="black"/>
<path d="M427.135 542.261L426.814 542.076L426.814 541.881L427.135 542.066L427.135 542.261Z" fill="white" stroke="white" stroke-width="0.05"/>
<path d="M415.84 460.634L420.655 461.614L420.655 465.226L415.84 460.634Z" fill="black" stroke="black"/>
<path d="M415.462 449.603L433.279 459.89C433.816 460.2 434.331 460.744 434.711 461.401C435.091 462.059 435.304 462.777 435.304 463.397L435.304 540.588" stroke="black"/>
<path d="M415.469 449.794L415.293 449.693L415.293 449.323L415.469 449.424L415.469 449.794Z" fill="white" stroke="white" stroke-width="0.05"/>
<path d="M435.301 546.345L433.738 539.883L436.866 541.689L435.301 546.345Z" fill="black" stroke="black"/>
<path d="M457.684 559.705L457.684 487.131C457.684 486.511 457.897 486.039 458.277 485.82C458.657 485.601 459.172 485.652 459.709 485.962L524.5 523.369" stroke="black"/>
<path d="M457.84 559.989L457.519 559.804L457.519 559.609L457.843 559.796L457.84 559.989Z" fill="white" stroke="white" stroke-width="0.05"/>
<path d="M529.484 526.246L524.668 525.278L524.668 521.666L529.484 526.246Z" fill="black" stroke="black"/>
<path d="M529.859 517.454L451.374 472.141C450.837 471.831 450.322 471.78 449.942 471.999C449.562 472.218 449.349 472.69 449.349 473.31L449.349 548.7" stroke="black"/>
<path d="M530.027 517.735L529.858 517.637L529.858 517.267L530.027 517.365L530.027 517.735Z" fill="white" stroke="white" stroke-width="0.05"/>
<path d="M449.349 554.456L447.79 547.996L450.918 549.802L449.349 554.456Z" fill="black" stroke="black"/>
<path d="M57.8804 343.86L139.804 391.158Z" fill="black"/>
<path d="M57.8804 343.86L139.804 391.158" stroke="black"/>
<path d="M57.8871 344.047L57.7353 343.959L57.6914 343.564L57.8871 343.677L57.8871 344.047Z" fill="black" stroke="white" stroke-width="0.05"/>
<path d="M144.788 394.036L139.972 393.06L139.972 389.448L144.788 394.036Z" fill="black" stroke="black"/>
<path d="M145.162 417.943L69.8091 374.438ZM145.159 417.941L145.328 418.039Z" fill="black"/>
<path d="M145.162 417.943L69.8091 374.438M145.159 417.941L145.328 418.039" stroke="black"/>
<path d="M64.8218 371.559L69.6406 372.533L69.6406 376.145L64.8218 371.559Z" fill="black" stroke="black"/>
<path d="M665.008 456.25L665.008 501.762" stroke="black"/>
<path d="M665.171 456.348L664.85 456.163L664.85 455.968L665.174 456.155L665.171 456.348Z" fill="white" stroke="white" stroke-width="0.05"/>
<path d="M665.009 507.518L663.446 501.055L666.574 502.861L665.009 507.518Z" fill="black" stroke="black"/>
<path d="M685.424 543.315L747.219 578.992" stroke="black"/>
<path d="M685.431 543.503L685.255 543.401L685.255 543.031L685.431 543.133L685.431 543.503Z" fill="white" stroke="white" stroke-width="0.05"/>
<path d="M752.203 581.87L747.387 580.894L747.387 577.282L752.203 581.87Z" fill="black" stroke="black"/>
<path d="M744.709 747.167L770.97 762.329C771.508 762.64 772.025 762.657 772.405 762.378C772.786 762.099 773 761.545 773 760.839L773 624" stroke="black"/>
<path d="M739.795 744.199L744.61 745.175L744.61 748.787L739.795 744.199Z" fill="black" stroke="black"/>
<path d="M772.993 640.831L772.993 640.636M719.001 708.62L719.001 619.591C719.001 618.971 718.787 618.253 718.408 617.595C718.028 616.938 717.513 616.394 716.976 616.084L576.056 534.724" stroke="black"/>
<path d="M719.163 708.908L718.842 708.723L718.842 708.528L719.166 708.715L719.163 708.908Z" fill="white" stroke="white" stroke-width="0.05"/>
<path d="M571.068 531.844L575.884 532.816L575.884 536.432L571.068 531.844Z" fill="black" stroke="black"/>
<path d="M582.801 643.592L698.581 710.437Z" fill="black"/>
<path d="M582.801 643.592L698.581 710.437" stroke="black"/>
<path d="M577.817 640.714L582.633 641.69L582.633 645.302L577.817 640.714Z" fill="black" stroke="black"/>
<path d="M698.754 710.724L698.585 710.627L698.585 710.256L698.754 710.354L698.754 710.724Z" fill="white" stroke="white" stroke-width="0.05"/>
<path d="M577.439 665.504L693.226 732.354Z" fill="black"/>
<path d="M577.439 665.504L693.226 732.354" stroke="black"/>
<path d="M577.446 665.691L577.271 665.59L577.271 665.224L577.446 665.325L577.446 665.691Z" fill="white" stroke="white" stroke-width="0.05"/>
<path d="M698.21 735.231L693.395 734.255L693.395 730.647L698.21 735.231Z" fill="black" stroke="black"/>
<path d="M260.234 456.808L305.155 482.743M260.24 456.812L260.065 456.71" stroke="black"/>
<path d="M310.14 485.621L305.324 484.645L305.324 481.033L310.14 485.621Z" fill="black" stroke="black"/>
<path d="M310.514 513.9L265.599 487.969" stroke="black"/>
<path d="M310.683 514.185L310.514 514.087L310.514 513.717L310.683 513.815L310.683 514.185Z" fill="white" stroke="white" stroke-width="0.05"/>
<path d="M260.612 485.089L265.427 486.065L265.427 489.677L260.612 485.089Z" fill="black" stroke="black"/>
<path d="M330.93 486.523L330.93 395.538C330.93 394.918 331.143 394.447 331.523 394.227C331.903 394.008 332.418 394.059 332.955 394.369L369.272 415.337" stroke="black"/>
<path d="M331.092 486.812L330.771 486.626L330.771 486.432L331.095 486.619L331.092 486.812Z" fill="white" stroke="white" stroke-width="0.05"/>
<path d="M374.256 418.214L369.44 417.238L369.44 413.626L374.256 418.214Z" fill="black" stroke="black"/>
<path d="M224.113 428.534L264.607 451.914L264.607 498.672L224.113 475.293L224.113 428.534Z" fill="url(#paint1_linear_2074_1105)"/>
<path d="M238.036 466.553L250.07 473.501L250.07 460.315L238.036 453.367L238.036 466.553ZM251.325 461.036L253.215 462.127L253.215 463.608L251.325 462.516L251.325 463.958L253.215 465.049L253.215 466.53L251.325 465.439L251.325 466.888L253.215 467.979L253.215 469.46L251.325 468.369L251.325 470.551L253.215 471.642L253.215 473.092L251.325 472.001L251.325 473.481L253.215 474.572L253.215 476.022L251.241 474.882C251.072 475.233 250.711 475.317 250.262 475.058L250.07 474.947L250.07 477.129L248.788 476.388L248.788 474.206L247.539 473.485L247.539 475.667L246.257 474.927L246.257 472.745L245.001 472.02L245.001 474.202L243.719 473.462L243.719 471.28L242.47 470.559L242.47 472.741L241.188 472.001L241.188 469.819L239.288 468.722L239.288 470.904L238.04 470.183L238.04 468.001L237.817 467.872C237.372 467.615 237.007 467.113 236.838 466.567L235.505 465.797L235.505 464.348L236.754 465.069L236.754 463.588L235.505 462.867L235.505 461.425L236.754 462.146L236.754 459.953L235.505 459.232L235.505 457.759L236.754 458.48L236.754 457.03L235.505 456.309L235.505 454.829L236.754 455.549L236.754 454.108L235.505 453.387L235.505 451.906L236.754 452.627L236.754 452.393C236.754 451.723 237.226 451.446 237.814 451.785L238.036 451.914L238.036 449.732L239.285 450.453L239.285 452.635L241.185 453.732L241.185 451.55L242.467 452.29L242.467 454.472L243.716 455.193L243.716 453.011L244.998 453.751L244.998 455.933L246.253 456.658L246.253 454.476L247.536 455.216L247.536 457.398L248.791 458.123L248.791 455.941L250.073 456.681L250.073 458.863L250.266 458.975C250.853 459.314 251.325 460.132 251.325 460.81L251.325 461.044L251.325 461.036ZM244.36 478.243L231.682 470.923L231.682 456.288L234.22 457.753L234.22 456.307L231.598 454.793C230.957 454.423 230.427 454.702 230.427 455.434L230.427 470.3C230.427 471.04 230.957 471.958 231.598 472.328L244.468 479.759C245.109 480.129 245.609 479.806 245.609 479.065L245.609 476.041L244.36 475.321L244.36 478.243ZM258.29 456.913L258.29 471.779C258.29 472.519 257.76 472.79 257.119 472.42L254.501 470.908L254.501 469.458L257.032 470.919L257.032 456.288L244.357 448.97L244.357 451.893L243.101 451.168L243.101 448.148C243.101 447.408 243.608 447.092 244.249 447.462L257.116 454.891C257.757 455.261 258.287 456.175 258.287 456.915L258.29 456.913Z" fill="white"/>
<path d="M161.252 435.72C151.888 430.313 144.289 417.151 144.289 406.338C144.289 395.532 151.881 391.141 161.249 396.549C170.613 401.956 178.209 415.117 178.209 425.926C178.209 436.743 170.617 441.134 161.249 435.725L161.252 435.72ZM161.252 398.118C152.637 393.144 145.649 397.175 145.649 407.123C145.649 417.078 152.634 429.181 161.252 434.157C169.867 439.131 176.856 435.1 176.856 425.144C176.856 415.2 169.871 403.098 161.252 398.122L161.252 398.118Z" fill="#693CC5"/>
<path d="M171.369 427.451L170.073 426.703L170.073 423.574C170.073 423.134 169.77 422.619 169.405 422.409L167.353 421.224L167.353 418.092C167.353 417.655 167.05 417.137 166.679 416.923L161.931 414.181L161.931 411.828L166.682 414.571C167.053 414.785 167.357 414.594 167.357 414.181L167.357 407.117C167.357 406.677 167.053 406.162 166.682 405.948L155.816 399.674C155.451 399.464 155.151 399.634 155.151 400.07L155.151 407.134C155.151 407.547 155.455 408.089 155.819 408.3L160.571 411.043L160.571 413.396L155.819 410.653C155.448 410.439 155.151 410.61 155.151 411.047L155.151 414.179L153.12 413.007C152.732 412.783 152.428 412.946 152.428 413.386L152.428 416.515L151.135 415.769C150.771 415.559 150.467 415.75 150.467 416.163L150.467 420.098C150.467 420.535 150.771 421.053 151.132 421.261L154.459 423.182C154.847 423.407 155.151 423.239 155.151 422.803L155.151 418.867C155.151 418.454 154.847 417.912 154.459 417.688L153.791 417.303L153.791 414.949L157.179 416.905L157.179 419.263L156.504 418.873C156.12 418.651 155.816 418.838 155.816 419.255L155.816 423.19C155.816 423.619 156.12 424.137 156.508 424.361L159.902 426.321C160.274 426.535 160.571 426.368 160.571 425.928L160.571 421.992C160.571 421.583 160.267 421.037 159.902 420.827L158.543 420.042L158.543 416.917C158.543 416.476 158.239 415.962 157.851 415.738L156.511 414.965L156.511 412.611L165.99 418.084L165.99 420.437L164.654 419.666C164.266 419.442 163.962 419.605 163.962 420.046L163.962 423.175L162.599 422.388C162.228 422.173 161.924 422.364 161.924 422.777L161.924 426.713C161.924 427.149 162.228 427.667 162.599 427.882L165.99 429.84C166.382 430.066 166.682 429.896 166.682 429.46L166.682 425.524C166.682 425.111 166.378 424.57 165.99 424.346L165.322 423.96L165.322 421.606L168.713 423.564L168.713 425.922L167.978 425.497C167.607 425.283 167.303 425.47 167.303 425.887L167.303 429.822C167.303 430.251 167.607 430.769 167.978 430.983L171.389 432.953C171.761 433.167 172.064 433.004 172.064 432.563L172.064 428.628L172.064 428.608C172.041 428.186 171.737 427.667 171.369 427.455L171.369 427.451ZM153.788 421.213L151.824 420.079L151.824 417.753L153.791 418.888L153.788 421.213ZM159.211 422.017L159.211 424.348L157.186 423.179L157.186 420.852L159.211 422.017ZM156.511 407.125L156.511 401.662L165.99 407.134L165.99 412.601L156.511 407.125ZM165.325 427.878L163.301 426.709L163.301 424.383L165.325 425.552L165.325 427.878ZM170.681 430.97L168.649 429.797L168.649 427.471L170.674 428.64L170.681 430.97Z" fill="#693CC5"/>
<path d="M193.155 249.059L233.649 272.438L233.649 319.197L193.155 295.817L193.155 249.059Z" fill="#CC2264"/>
<path d="M210.156 288.799L204.217 285.37C203.596 284.989 203.056 284.494 202.516 283.812C200.815 281.61 199.87 279.05 199.897 276.736C199.789 274.016 201.22 272.539 203.407 273.057L203.407 272.57C203.488 269.305 205.027 267.388 207.645 267.481C210.426 267.664 213.503 270.143 215.609 273.911C216.338 275.177 216.824 276.28 217.229 277.585C217.823 277.394 218.471 277.503 219.227 277.94C220.684 278.781 222.358 281.022 222.655 284.011C224.032 285.195 226.894 288.149 226.894 292.392C226.975 294.66 226.03 296.074 224.329 296.141L223.789 294.738C225.139 294.672 225.868 293.549 225.787 291.753C225.787 288.09 223.168 285.671 222.007 284.778C221.872 284.653 221.737 284.494 221.656 284.303C221.575 284.131 221.548 283.952 221.575 283.804C221.413 281.451 220.279 279.783 219.2 279.159C218.471 278.758 217.877 278.785 217.445 279.214C217.337 279.339 217.148 279.315 216.932 279.167C216.743 279.019 216.581 278.777 216.5 278.505C216.149 277.047 215.609 275.746 214.826 274.343C213.017 271.164 210.426 269.067 208.05 268.892C205.89 268.853 204.568 270.439 204.487 273.17C204.487 273.482 204.514 273.763 204.541 274.067C204.568 274.413 204.379 274.612 204.109 274.519C202.192 273.864 200.869 275.056 200.977 277.363C200.923 279.226 201.706 281.306 203.11 283.083C203.461 283.559 203.812 283.878 204.217 284.112L210.156 287.541L210.156 288.799Z" fill="white"/>
<path d="M226.303 301.859L222.456 295.196C223.199 293.734 223.151 291.747 222.338 289.423C220.894 285.335 217.435 282.045 214.624 282.101C211.809 282.136 210.689 285.48 212.133 289.548C213.578 293.639 217.02 296.92 219.848 296.885L223.627 303.431C223.998 304.074 224.437 304.522 224.963 304.826C225.486 305.128 225.949 305.2 226.313 304.982L226.333 304.994C227.056 304.53 227.056 303.151 226.3 301.857L226.303 301.859ZM217.236 294.859C214.671 293.378 212.592 289.778 212.592 286.824C212.592 283.863 214.668 282.664 217.236 284.147C219.8 285.628 221.876 289.222 221.876 292.18C221.876 295.129 219.804 296.334 217.239 294.853L217.236 294.859ZM225.547 303.643C225.223 303.807 224.704 303.507 224.376 302.967L220.782 296.731C221.241 296.575 221.592 296.357 221.93 295.991L225.54 302.291C225.868 302.851 225.868 303.443 225.54 303.64L225.547 303.643Z" fill="white"/>
<path d="M218.717 287.465L218.076 288.096C217.671 287.519 217.222 287.128 216.726 286.927C215.734 286.522 215.045 287.192 215.194 288.419C215.261 289.051 215.498 289.662 215.916 290.255L215.295 290.87C214.023 289.006 213.787 286.765 214.762 285.863C215.714 284.99 217.468 285.696 218.744 287.484L218.717 287.465Z" fill="white"/>
<path d="M175.223 412.854L218.585 437.89" stroke="black"/>
<path d="M175.229 413.046L175.172 413.012L174.942 412.51L175.229 412.675L175.229 413.046Z" fill="white" stroke="white" stroke-width="0.05"/>
<path d="M223.566 440.765L218.754 439.795L218.754 436.183L223.566 440.765Z" fill="black" stroke="black"/>
<path d="M223.944 466.607L178.364 440.292" stroke="black"/>
<path d="M224.113 466.888L223.944 466.791L223.944 466.42L224.113 466.518L224.113 466.888Z" fill="white" stroke="white" stroke-width="0.05"/>
<path d="M173.38 437.414L178.195 438.387L178.195 441.999L173.38 437.414Z" fill="black" stroke="black"/>
<defs>
<filter id="filter0_d_2074_1105" x="0" y="15.269" width="874.579" height="1019.79" filterUnits="userSpaceOnUse" color-interpolation-filters="sRGB">
<feFlood flood-opacity="0" result="BackgroundImageFix"/>
<feColorMatrix in="SourceAlpha" type="matrix" values="0 0 0 0 0 0 0 0 0 0 0 0 0 0 0 0 0 0 127 0" result="hardAlpha"/>
<feOffset dy="4"/>
<feGaussianBlur stdDeviation="2"/>
<feComposite in2="hardAlpha" operator="out"/>
<feColorMatrix type="matrix" values="0 0 0 0 0 0 0 0 0 0 0 0 0 0 0 0 0 0 0.25 0"/>
<feBlend mode="normal" in2="BackgroundImageFix" result="effect1_dropShadow_2074_1105"/>
<feBlend mode="normal" in="SourceGraphic" in2="effect1_dropShadow_2074_1105" result="shape"/>
</filter>
<linearGradient id="paint0_linear_2074_1105" x1="17.9111" y1="59.9997" x2="891.411" y2="521" gradientUnits="userSpaceOnUse">
<stop stop-color="#EAEAEA"/>
<stop offset="1" stop-color="#626262" stop-opacity="0.3"/>
</linearGradient>
<linearGradient id="paint1_linear_2074_1105" x1="224.113" y1="475.297" x2="264.607" y2="451.917" gradientUnits="userSpaceOnUse">
<stop stop-color="#C8511B"/>
<stop offset="1" stop-color="#FF9900"/>
</linearGradient>
</defs>
</svg>
