<svg width="1920" height="1652" viewBox="0 0 1920 1652" fill="none" xmlns="http://www.w3.org/2000/svg">
<g clip-path="url(#clip0_2061_2611)">
<path d="M-1546.66 845.418L997 2314" stroke="#B3B3B3" stroke-opacity="0.3"/>
<path d="M-1459.37 795.024L1084.28 2263.61" stroke="#B3B3B3" stroke-opacity="0.3"/>
<path d="M-1372.09 744.632L1171.57 2213.21" stroke="#B3B3B3" stroke-opacity="0.3"/>
<path d="M-1284.81 694.238L1258.85 2162.82" stroke="#B3B3B3" stroke-opacity="0.3"/>
<path d="M-1197.52 643.844L1346.14 2112.42" stroke="#B3B3B3" stroke-opacity="0.3"/>
<path d="M-1110.24 593.45L1433.42 2062.03" stroke="#B3B3B3" stroke-opacity="0.3"/>
<path d="M-1022.95 543.056L1520.71 2011.64" stroke="#B3B3B3" stroke-opacity="0.3"/>
<path d="M-935.666 492.661L1607.99 1961.24" stroke="#B3B3B3" stroke-opacity="0.3"/>
<path d="M-848.383 442.269L1695.27 1910.85" stroke="#B3B3B3" stroke-opacity="0.3"/>
<path d="M-761.099 391.876L1782.56 1860.46" stroke="#B3B3B3" stroke-opacity="0.3"/>
<path d="M-673.814 341.481L1869.84 1810.06" stroke="#B3B3B3" stroke-opacity="0.3"/>
<path d="M-586.527 291.087L1957.13 1759.67" stroke="#B3B3B3" stroke-opacity="0.3"/>
<path d="M-499.243 240.693L2044.41 1709.27" stroke="#B3B3B3" stroke-opacity="0.3"/>
<path d="M-411.961 190.301L2131.7 1658.88" stroke="#B3B3B3" stroke-opacity="0.3"/>
<path d="M-324.678 139.907L2218.98 1608.49" stroke="#B3B3B3" stroke-opacity="0.3"/>
<path d="M-237.39 89.5127L2306.27 1558.09" stroke="#B3B3B3" stroke-opacity="0.3"/>
<path d="M-150.107 39.1191L2393.55 1507.7" stroke="#B3B3B3" stroke-opacity="0.3"/>
<path d="M-62.8223 -11.2749L2480.83 1457.31" stroke="#B3B3B3" stroke-opacity="0.3"/>
<path d="M24.4639 -61.6685L2568.12 1406.91" stroke="#B3B3B3" stroke-opacity="0.3"/>
<path d="M111.747 -112.062L2655.4 1356.52" stroke="#B3B3B3" stroke-opacity="0.3"/>
<path d="M199.031 -162.456L2742.69 1306.13" stroke="#B3B3B3" stroke-opacity="0.3"/>
<path d="M286.315 -212.85L2829.97 1255.73" stroke="#B3B3B3" stroke-opacity="0.3"/>
<path d="M373.602 -263.245L2917.26 1205.34" stroke="#B3B3B3" stroke-opacity="0.3"/>
<path d="M460.886 -313.637L3004.54 1154.94" stroke="#B3B3B3" stroke-opacity="0.3"/>
<path d="M548.169 -364.031L3091.83 1104.55" stroke="#B3B3B3" stroke-opacity="0.3"/>
<path d="M635.454 -414.425L3179.11 1054.16" stroke="#B3B3B3" stroke-opacity="0.3"/>
<path d="M722.739 -464.819L3266.4 1003.76" stroke="#B3B3B3" stroke-opacity="0.3"/>
<path d="M810.022 -515.212L3353.68 953.369" stroke="#B3B3B3" stroke-opacity="0.3"/>
<path d="M897.307 -565.605L3440.96 902.976" stroke="#B3B3B3" stroke-opacity="0.3"/>
<path d="M984.594 -616L3528.25 852.581" stroke="#B3B3B3" stroke-opacity="0.3"/>
<path d="M996.999 2314L3528.25 852.581" stroke="#B3B3B3" stroke-opacity="0.3"/>
<path d="M909.288 2263.36L3440.54 801.94" stroke="#B3B3B3" stroke-opacity="0.3"/>
<path d="M821.572 2212.72L3352.82 751.299" stroke="#B3B3B3" stroke-opacity="0.3"/>
<path d="M733.863 2162.08L3265.11 700.659" stroke="#B3B3B3" stroke-opacity="0.3"/>
<path d="M646.151 2111.44L3177.4 650.019" stroke="#B3B3B3" stroke-opacity="0.3"/>
<path d="M558.438 2060.79L3089.69 599.377" stroke="#B3B3B3" stroke-opacity="0.3"/>
<path d="M470.725 2010.15L3001.98 548.735" stroke="#B3B3B3" stroke-opacity="0.3"/>
<path d="M383.013 1959.51L2914.26 498.095" stroke="#B3B3B3" stroke-opacity="0.3"/>
<path d="M295.302 1908.87L2826.55 447.456" stroke="#B3B3B3" stroke-opacity="0.3"/>
<path d="M207.586 1858.23L2738.84 396.813" stroke="#B3B3B3" stroke-opacity="0.3"/>
<path d="M119.875 1807.59L2651.13 346.173" stroke="#B3B3B3" stroke-opacity="0.3"/>
<path d="M32.1641 1756.95L2563.41 295.533" stroke="#B3B3B3" stroke-opacity="0.3"/>
<path d="M-55.5469 1706.31L2475.7 244.892" stroke="#B3B3B3" stroke-opacity="0.3"/>
<path d="M-143.26 1655.67L2387.99 194.252" stroke="#B3B3B3" stroke-opacity="0.3"/>
<path d="M-230.973 1605.03L2300.28 143.609" stroke="#B3B3B3" stroke-opacity="0.3"/>
<path d="M-318.686 1554.39L2212.57 92.9704" stroke="#B3B3B3" stroke-opacity="0.3"/>
<path d="M-406.397 1503.75L2124.85 42.3288" stroke="#B3B3B3" stroke-opacity="0.3"/>
<path d="M-494.11 1453.11L2037.14 -8.3118" stroke="#B3B3B3" stroke-opacity="0.3"/>
<path d="M-581.821 1402.46L1949.43 -58.9534" stroke="#B3B3B3" stroke-opacity="0.3"/>
<path d="M-669.535 1351.82L1861.72 -109.595" stroke="#B3B3B3" stroke-opacity="0.3"/>
<path d="M-757.248 1301.18L1774 -160.234" stroke="#B3B3B3" stroke-opacity="0.3"/>
<path d="M-844.961 1250.54L1686.29 -210.875" stroke="#B3B3B3" stroke-opacity="0.3"/>
<path d="M-932.671 1199.9L1598.58 -261.515" stroke="#B3B3B3" stroke-opacity="0.3"/>
<path d="M-1020.38 1149.26L1510.87 -312.156" stroke="#B3B3B3" stroke-opacity="0.3"/>
<path d="M-1108.1 1098.62L1423.15 -362.797" stroke="#B3B3B3" stroke-opacity="0.3"/>
<path d="M-1195.81 1047.98L1335.44 -413.439" stroke="#B3B3B3" stroke-opacity="0.3"/>
<path d="M-1283.52 997.339L1247.73 -464.079" stroke="#B3B3B3" stroke-opacity="0.3"/>
<path d="M-1371.23 946.699L1160.02 -514.719" stroke="#B3B3B3" stroke-opacity="0.3"/>
<path d="M-1458.95 896.059L1072.3 -565.36" stroke="#B3B3B3" stroke-opacity="0.3"/>
<path d="M-1546.66 845.418L984.594 -616" stroke="#B3B3B3" stroke-opacity="0.3"/>
</g>
<defs>
<clipPath id="clip0_2061_2611">
<rect width="1920" height="1652" fill="white"/>
</clipPath>
</defs>
</svg>
