<svg width="500" height="499" viewBox="0 0 500 499" fill="none" xmlns="http://www.w3.org/2000/svg">
<mask id="mask0_2057_4672" style="mask-type:alpha" maskUnits="userSpaceOnUse" x="0" y="0" width="500" height="499">
<rect width="500" height="499" fill="url(#paint0_linear_2057_4672)"/>
</mask>
<g mask="url(#mask0_2057_4672)">
<path d="M240.518 -160.01L-477.927 254.784" stroke="#B3B3B3" stroke-opacity="0.8"/>
<path d="M258.939 -149.374L-459.505 265.42" stroke="#B3B3B3" stroke-opacity="0.8"/>
<path d="M277.362 -138.738L-441.083 276.056" stroke="#B3B3B3" stroke-opacity="0.8"/>
<path d="M295.783 -128.103L-422.662 286.692" stroke="#B3B3B3" stroke-opacity="0.8"/>
<path d="M314.205 -117.467L-404.24 297.327" stroke="#B3B3B3" stroke-opacity="0.8"/>
<path d="M332.626 -106.831L-385.818 307.963" stroke="#B3B3B3" stroke-opacity="0.8"/>
<path d="M351.049 -96.1953L-367.396 318.599" stroke="#B3B3B3" stroke-opacity="0.8"/>
<path d="M369.47 -85.5596L-348.975 329.235" stroke="#B3B3B3" stroke-opacity="0.8"/>
<path d="M387.892 -74.9238L-330.553 339.871" stroke="#B3B3B3" stroke-opacity="0.8"/>
<path d="M406.313 -64.2883L-312.131 350.506" stroke="#B3B3B3" stroke-opacity="0.8"/>
<path d="M424.736 -53.6523L-293.709 361.142" stroke="#B3B3B3" stroke-opacity="0.8"/>
<path d="M443.157 -43.0166L-275.288 371.778" stroke="#B3B3B3" stroke-opacity="0.8"/>
<path d="M461.578 -32.3811L-256.867 382.413" stroke="#B3B3B3" stroke-opacity="0.8"/>
<path d="M480 -21.7454L-238.445 393.049" stroke="#B3B3B3" stroke-opacity="0.8"/>
<path d="M498.422 -11.1094L-220.023 403.685" stroke="#B3B3B3" stroke-opacity="0.8"/>
<path d="M516.844 -0.473633L-201.601 414.321" stroke="#B3B3B3" stroke-opacity="0.8"/>
<path d="M535.265 10.1621L-183.18 424.956" stroke="#B3B3B3" stroke-opacity="0.8"/>
<path d="M553.686 20.7979L-164.759 435.592" stroke="#B3B3B3" stroke-opacity="0.8"/>
<path d="M572.108 31.4333L-146.337 446.228" stroke="#B3B3B3" stroke-opacity="0.8"/>
<path d="M590.53 42.0691L-127.915 456.863" stroke="#B3B3B3" stroke-opacity="0.8"/>
<path d="M608.952 52.7053L-109.493 467.5" stroke="#B3B3B3" stroke-opacity="0.8"/>
<path d="M627.374 63.3411L-91.0713 478.135" stroke="#B3B3B3" stroke-opacity="0.8"/>
<path d="M645.795 73.9768L-72.6494 488.771" stroke="#B3B3B3" stroke-opacity="0.8"/>
<path d="M664.216 84.6125L-54.229 499.407" stroke="#B3B3B3" stroke-opacity="0.8"/>
<path d="M682.638 95.248L-35.8071 510.042" stroke="#B3B3B3" stroke-opacity="0.8"/>
<path d="M701.06 105.884L-17.3853 520.678" stroke="#B3B3B3" stroke-opacity="0.8"/>
<path d="M719.481 116.52L1.0366 531.314" stroke="#B3B3B3" stroke-opacity="0.8"/>
<path d="M737.903 127.155L19.4585 541.95" stroke="#B3B3B3" stroke-opacity="0.8"/>
<path d="M756.325 137.792L37.8804 552.586" stroke="#B3B3B3" stroke-opacity="0.8"/>
<path d="M774.746 148.427L56.3013 563.221" stroke="#B3B3B3" stroke-opacity="0.8"/>
<path d="M793.168 159.063L74.7231 573.857" stroke="#B3B3B3" stroke-opacity="0.8"/>
<path d="M811.59 169.698L93.145 584.493" stroke="#B3B3B3" stroke-opacity="0.8"/>
<path d="M830.012 180.334L111.567 595.129" stroke="#B3B3B3" stroke-opacity="0.8"/>
<path d="M848.433 190.97L129.988 605.764" stroke="#B3B3B3" stroke-opacity="0.8"/>
<path d="M866.854 201.605L148.41 616.4" stroke="#B3B3B3" stroke-opacity="0.8"/>
<path d="M885.276 212.241L166.832 627.036" stroke="#B3B3B3" stroke-opacity="0.8"/>
<path d="M903.698 222.877L185.253 637.672" stroke="#B3B3B3" stroke-opacity="0.8"/>
<path d="M922.119 233.513L203.674 648.307" stroke="#B3B3B3" stroke-opacity="0.8"/>
<path d="M940.542 244.148L222.097 658.943" stroke="#B3B3B3" stroke-opacity="0.8"/>
<path d="M958.963 254.784L240.518 669.579" stroke="#B3B3B3" stroke-opacity="0.8"/>
<path d="M-477.926 254.784L240.519 669.579" stroke="#B3B3B3" stroke-opacity="0.8"/>
<path d="M-459.505 244.148L258.94 658.943" stroke="#B3B3B3" stroke-opacity="0.8"/>
<path d="M-441.083 233.513L277.362 648.307" stroke="#B3B3B3" stroke-opacity="0.8"/>
<path d="M-422.662 222.877L295.783 637.671" stroke="#B3B3B3" stroke-opacity="0.8"/>
<path d="M-404.24 212.241L314.205 627.036" stroke="#B3B3B3" stroke-opacity="0.8"/>
<path d="M-385.818 201.605L332.626 616.4" stroke="#B3B3B3" stroke-opacity="0.8"/>
<path d="M-367.396 190.97L351.048 605.764" stroke="#B3B3B3" stroke-opacity="0.8"/>
<path d="M-348.975 180.334L369.47 595.129" stroke="#B3B3B3" stroke-opacity="0.8"/>
<path d="M-330.553 169.698L387.892 584.493" stroke="#B3B3B3" stroke-opacity="0.8"/>
<path d="M-312.131 159.063L406.313 573.857" stroke="#B3B3B3" stroke-opacity="0.8"/>
<path d="M-293.71 148.427L424.734 563.221" stroke="#B3B3B3" stroke-opacity="0.8"/>
<path d="M-275.289 137.792L443.156 552.586" stroke="#B3B3B3" stroke-opacity="0.8"/>
<path d="M-256.866 127.155L461.579 541.95" stroke="#B3B3B3" stroke-opacity="0.8"/>
<path d="M-238.445 116.52L480 531.314" stroke="#B3B3B3" stroke-opacity="0.8"/>
<path d="M-220.022 105.884L498.422 520.678" stroke="#B3B3B3" stroke-opacity="0.8"/>
<path d="M-201.602 95.248L516.843 510.042" stroke="#B3B3B3" stroke-opacity="0.8"/>
<path d="M-183.18 84.6125L535.265 499.407" stroke="#B3B3B3" stroke-opacity="0.8"/>
<path d="M-164.759 73.9768L553.686 488.771" stroke="#B3B3B3" stroke-opacity="0.8"/>
<path d="M-146.337 63.3411L572.108 478.135" stroke="#B3B3B3" stroke-opacity="0.8"/>
<path d="M-127.916 52.7053L590.529 467.5" stroke="#B3B3B3" stroke-opacity="0.8"/>
<path d="M-109.493 42.0691L608.952 456.863" stroke="#B3B3B3" stroke-opacity="0.8"/>
<path d="M-91.0708 31.4333L627.374 446.228" stroke="#B3B3B3" stroke-opacity="0.8"/>
<path d="M-72.6494 20.7976L645.795 435.592" stroke="#B3B3B3" stroke-opacity="0.8"/>
<path d="M-54.2285 10.1621L664.216 424.956" stroke="#B3B3B3" stroke-opacity="0.8"/>
<path d="M-35.8071 -0.473633L682.638 414.321" stroke="#B3B3B3" stroke-opacity="0.8"/>
<path d="M-17.3853 -11.1094L701.06 403.685" stroke="#B3B3B3" stroke-opacity="0.8"/>
<path d="M1.03662 -21.7451L719.481 393.049" stroke="#B3B3B3" stroke-opacity="0.8"/>
<path d="M19.458 -32.3809L737.903 382.413" stroke="#B3B3B3" stroke-opacity="0.8"/>
<path d="M37.8804 -43.0168L756.325 371.777" stroke="#B3B3B3" stroke-opacity="0.8"/>
<path d="M56.3018 -53.6526L774.747 361.142" stroke="#B3B3B3" stroke-opacity="0.8"/>
<path d="M74.7231 -64.2883L793.168 350.506" stroke="#B3B3B3" stroke-opacity="0.8"/>
<path d="M93.1445 -74.9238L811.589 339.87" stroke="#B3B3B3" stroke-opacity="0.8"/>
<path d="M111.566 -85.5596L830.011 329.235" stroke="#B3B3B3" stroke-opacity="0.8"/>
<path d="M129.988 -96.1953L848.433 318.599" stroke="#B3B3B3" stroke-opacity="0.8"/>
<path d="M148.41 -106.831L866.855 307.963" stroke="#B3B3B3" stroke-opacity="0.8"/>
<path d="M166.832 -117.467L885.276 297.328" stroke="#B3B3B3" stroke-opacity="0.8"/>
<path d="M185.253 -128.103L903.698 286.691" stroke="#B3B3B3" stroke-opacity="0.8"/>
<path d="M203.675 -138.739L922.12 276.056" stroke="#B3B3B3" stroke-opacity="0.8"/>
<path d="M222.097 -149.374L940.541 265.42" stroke="#B3B3B3" stroke-opacity="0.8"/>
<path d="M240.518 -160.01L958.963 254.784" stroke="#B3B3B3" stroke-opacity="0.8"/>
</g>
<defs>
<linearGradient id="paint0_linear_2057_4672" x1="250" y1="0" x2="250" y2="499" gradientUnits="userSpaceOnUse">
<stop stop-color="white" stop-opacity="0"/>
<stop offset="1" stop-color="white"/>
</linearGradient>
</defs>
</svg>
