<svg width="1920" height="1080" viewBox="0 0 1920 1080" fill="none" xmlns="http://www.w3.org/2000/svg">
<g clip-path="url(#clip0_2061_2611)">
<path d="M-1050 558.673L984.593 1733.35" stroke="#B3B3B3" stroke-opacity="0.5"/>
<path d="M-979.842 518.168L1054.75 1692.84" stroke="#B3B3B3" stroke-opacity="0.5"/>
<path d="M-909.684 477.662L1124.91 1652.33" stroke="#B3B3B3" stroke-opacity="0.5"/>
<path d="M-839.526 437.156L1195.07 1611.83" stroke="#B3B3B3" stroke-opacity="0.5"/>
<path d="M-769.366 396.65L1265.23 1571.32" stroke="#B3B3B3" stroke-opacity="0.5"/>
<path d="M-699.208 356.144L1335.38 1530.82" stroke="#B3B3B3" stroke-opacity="0.5"/>
<path d="M-629.051 315.638L1405.54 1490.31" stroke="#B3B3B3" stroke-opacity="0.5"/>
<path d="M-558.891 275.131L1475.7 1449.8" stroke="#B3B3B3" stroke-opacity="0.5"/>
<path d="M-488.733 234.626L1545.86 1409.3" stroke="#B3B3B3" stroke-opacity="0.5"/>
<path d="M-418.575 194.12L1616.02 1368.79" stroke="#B3B3B3" stroke-opacity="0.5"/>
<path d="M-348.417 153.615L1686.18 1328.29" stroke="#B3B3B3" stroke-opacity="0.5"/>
<path d="M-278.257 113.108L1756.34 1287.78" stroke="#B3B3B3" stroke-opacity="0.5"/>
<path d="M-208.099 72.6021L1826.49 1247.27" stroke="#B3B3B3" stroke-opacity="0.5"/>
<path d="M-137.942 32.0964L1896.65 1206.77" stroke="#B3B3B3" stroke-opacity="0.5"/>
<path d="M-67.7842 -8.40894L1966.81 1166.26" stroke="#B3B3B3" stroke-opacity="0.5"/>
<path d="M2.37573 -48.916L2036.97 1125.76" stroke="#B3B3B3" stroke-opacity="0.5"/>
<path d="M72.5337 -89.4216L2107.13 1085.25" stroke="#B3B3B3" stroke-opacity="0.5"/>
<path d="M142.691 -129.927L2177.28 1044.75" stroke="#B3B3B3" stroke-opacity="0.5"/>
<path d="M212.852 -170.434L2247.44 1004.24" stroke="#B3B3B3" stroke-opacity="0.5"/>
<path d="M283.009 -210.94L2317.6 963.733" stroke="#B3B3B3" stroke-opacity="0.5"/>
<path d="M353.167 -251.445L2387.76 923.228" stroke="#B3B3B3" stroke-opacity="0.5"/>
<path d="M423.325 -291.951L2457.92 882.722" stroke="#B3B3B3" stroke-opacity="0.5"/>
<path d="M493.485 -332.458L2528.08 842.215" stroke="#B3B3B3" stroke-opacity="0.5"/>
<path d="M563.643 -372.963L2598.24 801.709" stroke="#B3B3B3" stroke-opacity="0.5"/>
<path d="M633.8 -413.469L2668.39 761.204" stroke="#B3B3B3" stroke-opacity="0.5"/>
<path d="M703.96 -453.976L2738.55 720.697" stroke="#B3B3B3" stroke-opacity="0.5"/>
<path d="M774.118 -494.481L2808.71 680.191" stroke="#B3B3B3" stroke-opacity="0.5"/>
<path d="M844.275 -534.987L2878.87 639.685" stroke="#B3B3B3" stroke-opacity="0.5"/>
<path d="M914.434 -575.492L2949.03 599.18" stroke="#B3B3B3" stroke-opacity="0.5"/>
<path d="M984.594 -616L3019.19 558.673" stroke="#B3B3B3" stroke-opacity="0.5"/>
<path d="M984.593 1733.35L3019.19 558.673" stroke="#B3B3B3" stroke-opacity="0.5"/>
<path d="M914.436 1692.84L2949.03 518.167" stroke="#B3B3B3" stroke-opacity="0.5"/>
<path d="M844.275 1652.33L2878.87 477.66" stroke="#B3B3B3" stroke-opacity="0.5"/>
<path d="M774.118 1611.83L2808.71 437.155" stroke="#B3B3B3" stroke-opacity="0.5"/>
<path d="M703.96 1571.32L2738.55 396.65" stroke="#B3B3B3" stroke-opacity="0.5"/>
<path d="M633.8 1530.81L2668.39 356.142" stroke="#B3B3B3" stroke-opacity="0.5"/>
<path d="M563.643 1490.31L2598.24 315.637" stroke="#B3B3B3" stroke-opacity="0.5"/>
<path d="M493.485 1449.8L2528.08 275.131" stroke="#B3B3B3" stroke-opacity="0.5"/>
<path d="M423.327 1409.3L2457.92 234.626" stroke="#B3B3B3" stroke-opacity="0.5"/>
<path d="M353.167 1368.79L2387.76 194.119" stroke="#B3B3B3" stroke-opacity="0.5"/>
<path d="M283.009 1328.29L2317.6 153.613" stroke="#B3B3B3" stroke-opacity="0.5"/>
<path d="M212.852 1287.78L2247.44 113.108" stroke="#B3B3B3" stroke-opacity="0.5"/>
<path d="M142.694 1247.27L2177.29 72.6023" stroke="#B3B3B3" stroke-opacity="0.5"/>
<path d="M72.5349 1206.77L2107.13 32.096" stroke="#B3B3B3" stroke-opacity="0.5"/>
<path d="M2.37573 1166.26L2036.97 -8.4104" stroke="#B3B3B3" stroke-opacity="0.5"/>
<path d="M-67.7832 1125.76L1966.81 -48.9167" stroke="#B3B3B3" stroke-opacity="0.5"/>
<path d="M-137.941 1085.25L1896.65 -89.4226" stroke="#B3B3B3" stroke-opacity="0.5"/>
<path d="M-208.099 1044.74L1826.49 -129.928" stroke="#B3B3B3" stroke-opacity="0.5"/>
<path d="M-278.257 1004.24L1756.34 -170.434" stroke="#B3B3B3" stroke-opacity="0.5"/>
<path d="M-348.417 963.732L1686.18 -210.941" stroke="#B3B3B3" stroke-opacity="0.5"/>
<path d="M-418.574 923.227L1616.02 -251.446" stroke="#B3B3B3" stroke-opacity="0.5"/>
<path d="M-488.733 882.72L1545.86 -291.952" stroke="#B3B3B3" stroke-opacity="0.5"/>
<path d="M-558.891 842.215L1475.7 -332.458" stroke="#B3B3B3" stroke-opacity="0.5"/>
<path d="M-629.05 801.709L1405.54 -372.964" stroke="#B3B3B3" stroke-opacity="0.5"/>
<path d="M-699.208 761.202L1335.38 -413.47" stroke="#B3B3B3" stroke-opacity="0.5"/>
<path d="M-769.366 720.697L1265.23 -453.976" stroke="#B3B3B3" stroke-opacity="0.5"/>
<path d="M-839.525 680.191L1195.07 -494.482" stroke="#B3B3B3" stroke-opacity="0.5"/>
<path d="M-909.683 639.685L1124.91 -534.988" stroke="#B3B3B3" stroke-opacity="0.5"/>
<path d="M-979.842 599.179L1054.75 -575.494" stroke="#B3B3B3" stroke-opacity="0.5"/>
<path d="M-1050 558.673L984.593 -616" stroke="#B3B3B3" stroke-opacity="0.5"/>
<rect width="1920" height="1080" fill="url(#paint0_linear_2061_2611)"/>
</g>
<defs>
<linearGradient id="paint0_linear_2061_2611" x1="960" y1="0" x2="960" y2="1080" gradientUnits="userSpaceOnUse">
<stop stop-color="white" stop-opacity="0"/>
<stop offset="0.74" stop-color="white" stop-opacity="0.75"/>
</linearGradient>
<clipPath id="clip0_2061_2611">
<rect width="1920" height="1080" fill="white"/>
</clipPath>
</defs>
</svg>
