<svg width="223" height="64" viewBox="0 0 223 64" fill="none" xmlns="http://www.w3.org/2000/svg">
<path d="M18.4192 18.5089L17.5036 22.9791H10.6637L8.18375 36.1203C8.00423 37.1257 7.91702 37.9335 7.91702 38.5439C7.91702 40.0878 8.75822 40.8598 10.4483 40.8598C11.6332 40.8598 12.818 40.7341 14.0029 40.4828L13.5695 45.1684C11.8127 45.5633 10.0713 45.7607 8.34789 45.7607C4.14446 45.7607 2.04657 43.9476 2.04657 40.3212C2.04657 39.3517 2.16966 38.2028 2.421 36.8743L5.06258 22.9791H0L0.91556 18.5089H5.9243L7.53746 9.99951L13.4105 8.76077L11.5229 18.5089H18.4192Z" fill="#FFB500"/>
<path d="M41.7881 24.2717C41.7881 30.2678 36.0792 33.4633 24.6615 33.8583C24.5178 34.7918 24.446 35.6894 24.446 36.5512C24.446 38.3464 24.8333 39.5672 25.6052 40.2135C26.3772 40.8597 27.7852 41.1829 29.8317 41.1829C32.381 41.1829 34.9303 40.6623 37.4795 39.621V44.1451C34.4994 45.2581 31.3218 45.8146 27.9467 45.8146C21.7711 45.8146 18.6833 42.8524 18.6833 36.9281C18.6833 31.5424 20.0938 27.0364 22.9124 23.41C25.7309 19.7836 29.2752 17.9704 33.5479 17.9704C36.3844 17.9704 38.5207 18.6167 39.9569 19.9093C41.1777 21.0223 41.7881 22.4764 41.7881 24.2717ZM36.1331 25.0257C36.1331 23.1946 35.0559 22.279 32.9016 22.279C31.0705 22.279 29.4727 23.033 28.1083 24.541C26.8516 25.9053 25.9361 27.6826 25.3616 29.8728C32.5426 29.6215 36.1331 28.0058 36.1331 25.0257Z" fill="#FFB500"/>
<path d="M64.6724 18.7782L63.3259 23.787C61.9282 23.1407 60.4022 22.8175 58.7506 22.8175C55.8782 22.8175 53.5777 24.2179 51.8543 27.0184C50.3822 29.4241 49.6487 32.2247 49.6487 35.4202C49.6487 38.9389 51.3722 40.6982 54.819 40.6982C56.8656 40.6982 58.7327 40.3032 60.4202 39.5133L59.9868 44.5759C57.6889 45.3658 55.4268 45.7607 53.2007 45.7607C46.8122 45.7607 43.6167 42.7447 43.6167 36.7127C43.6167 31.4347 44.9965 27.0364 47.7637 23.5177C50.6335 19.8554 54.4215 18.0243 59.1276 18.0243C61.0306 18.0243 62.8771 18.2756 64.6724 18.7782Z" fill="#FFB500"/>
<path d="M103.306 45.276H94.1708L80.1679 25.8054H79.8345V45.276H72.5663V0.266732C75.4541 0.0897722 79.478 0 84.6355 0C95.1248 0 100.372 4.06753 100.372 12.2025C100.372 15.7161 99.1923 18.5936 96.838 20.8376C94.4811 23.0843 91.4138 24.405 87.6361 24.8051C88.5234 25.9182 89.7904 27.5185 91.4369 29.6061L103.306 45.276ZM92.7705 13.0027C92.7705 8.29145 89.7237 5.93453 83.6353 5.93453C82.5222 5.93453 81.2553 5.9807 79.8345 6.0679V20.3376C80.7218 20.4273 81.9015 20.4709 83.3685 20.4709C86.2563 20.4709 88.5465 19.7938 90.2366 18.4371C91.9241 17.083 92.7705 15.2698 92.7705 13.0027Z" fill="#00263E"/>
<path d="M139.396 45.276H131.394L128.927 38.5413H114.457L111.923 45.276H104.722L117.858 10.6022H126.326L139.396 45.276ZM127.126 33.3402L123.526 23.6049C122.859 21.8712 122.259 20.0503 121.725 18.137H121.659C121.305 19.6502 120.725 21.4506 119.925 23.5382L116.191 33.3402H127.126Z" fill="#00263E"/>
<path d="M166.529 44.2092C163.595 45.2325 160.485 45.7428 157.194 45.7428C151.637 45.7428 147.369 44.2091 144.391 41.1418C141.547 38.2079 140.124 34.0532 140.124 28.6726C140.124 23.3843 141.614 19.0706 144.592 15.7366C147.926 12.0025 152.66 10.1354 158.794 10.1354C161.595 10.1354 164.085 10.4483 166.263 11.0689L165.596 17.4036C163.152 16.6035 160.705 16.2033 158.261 16.2033C154.927 16.2033 152.35 17.2933 150.526 19.4707C148.703 21.6506 147.792 24.4948 147.792 28.0058C147.792 31.6963 148.736 34.52 150.626 36.4742C152.516 38.431 155.194 39.4081 158.661 39.4081C161.285 39.4081 163.706 38.8747 165.929 37.8078L166.529 44.2092Z" fill="#00263E"/>
<path d="M192.129 45.276H171.725V10.6022H192.129V16.27H178.927V24.7384H191.529V30.2062H178.927V39.5415H192.129V45.276Z" fill="#00263E"/>
<path d="M223 45.276H214.132L204.196 31.0064H203.863V45.276H196.661V10.6022C199.195 10.4688 202.973 10.4022 207.997 10.4022C216.709 10.4022 221.066 13.6028 221.066 20.0041C221.066 22.7611 220.21 24.9949 218.499 26.7055C216.788 28.4187 214.488 29.4958 211.598 29.9395C211.777 30.119 212.708 31.3629 214.398 33.6736L223 45.276ZM213.465 20.7376C213.465 17.537 211.287 15.9366 206.93 15.9366C205.509 15.9366 204.486 15.9828 203.863 16.07V26.072C205.196 26.1618 206.307 26.2054 207.197 26.2054C209.11 26.2054 210.631 25.7053 211.764 24.7051C212.898 23.7049 213.465 22.3841 213.465 20.7376Z" fill="#00263E"/>
<path d="M78.3314 53.6767L78.0544 54.6923C77.6032 54.5384 77.1551 54.4584 76.7107 54.4584C75.8213 54.4584 75.1344 54.84 74.6488 55.6032C74.245 56.2495 74.0431 57.0312 74.0431 57.9422C74.0431 59.007 74.5872 59.5364 75.6742 59.5364C76.2282 59.5364 76.7415 59.4317 77.213 59.2286L77.1416 60.2442C76.5667 60.4412 75.9684 60.5396 75.3462 60.5396C73.6572 60.5396 72.8121 59.7456 72.8121 58.1515C72.8121 56.865 73.1506 55.7817 73.8277 54.9077C74.5731 53.9537 75.5751 53.4736 76.8338 53.4736C77.3533 53.4736 77.8525 53.5413 78.3314 53.6767Z" fill="#06263D"/>
<path d="M81.7062 52.9688L80.2807 60.4596H79.2036L80.6291 52.9688H81.7062Z" fill="#06263D"/>
<path d="M87.6872 57.1112C87.6872 58.1268 87.3794 58.9578 86.7639 59.6164C86.1755 60.2442 85.475 60.5581 84.6607 60.5581C83.3749 60.5581 82.7323 59.9549 82.7323 58.7362C82.7323 57.7144 83.0265 56.8773 83.6143 56.2126C84.1892 55.5725 84.897 55.2585 85.7378 55.2585C87.0372 55.2585 87.6872 55.874 87.6872 57.1112ZM86.5485 57.2343C86.5485 56.5388 86.2235 56.1879 85.5741 56.1879C85.0749 56.1879 84.6576 56.4403 84.3221 56.9389C84.0144 57.4067 83.8605 57.9422 83.8605 58.5577C83.8605 59.2655 84.1787 59.6164 84.8146 59.6164C85.3002 59.6164 85.7107 59.3886 86.0456 58.927C86.381 58.4653 86.5485 57.8991 86.5485 57.2343Z" fill="#06263D"/>
<path d="M94.3144 55.3571L93.801 58.0284C93.7604 58.2439 93.6096 59.0563 93.3499 60.4597H92.293C92.3755 60.0227 92.546 59.4133 92.8064 58.6439L92.7854 58.6316C92.1767 59.9242 91.4245 60.5705 90.529 60.5705C89.7694 60.5705 89.3903 60.1765 89.3903 59.3887C89.3903 59.2287 89.4106 59.044 89.4518 58.8471L90.1184 55.3571H91.1851L90.5696 58.5885C90.5357 58.7855 90.5185 58.9455 90.5185 59.0748C90.5185 59.4441 90.6656 59.6288 90.9598 59.6288C91.3494 59.6288 91.7668 59.2717 92.2112 58.5577C92.6217 57.9053 92.8882 57.2406 93.0113 56.5697L93.2372 55.3571H94.3144Z" fill="#06263D"/>
<path d="M101.177 52.9688L100.1 58.6192C99.9494 59.4317 99.8367 60.0411 99.7616 60.4596H98.7048C98.7664 60.1149 98.9442 59.4933 99.2385 58.5885L99.2175 58.5823C98.5472 59.9057 97.7883 60.5704 96.9401 60.5704C96.1676 60.5704 95.7811 60.0472 95.7811 58.9885C95.7811 57.9606 96.0409 57.1051 96.561 56.428C97.142 55.6586 97.9594 55.277 99.0126 55.277C99.2243 55.277 99.4366 55.2893 99.6484 55.3201L100.09 52.9688H101.177ZM99.4847 56.2187C99.2655 56.1572 99.047 56.1264 98.8279 56.1264C98.1989 56.1264 97.7064 56.428 97.3507 57.0189C97.0429 57.5298 96.889 58.1207 96.889 58.7978C96.889 59.3517 97.0429 59.6287 97.3507 59.6287C97.7471 59.6287 98.1712 59.2655 98.6229 58.5392C99.0193 57.8929 99.2828 57.2405 99.4126 56.588L99.4847 56.2187Z" fill="#06263D"/>
<path d="M110.195 53.5351L110.01 54.4645H107.537L107.158 56.4342H109.527L109.343 57.3513H106.983L106.573 59.5056H109.056L108.881 60.4596H105.301L106.614 53.5351H110.195Z" fill="#06263D"/>
<path d="M116.021 56.9697L115.354 60.4597H114.277L114.903 57.2283C114.937 57.0375 114.954 56.8774 114.954 56.742C114.954 56.3727 114.807 56.188 114.513 56.188C114.123 56.188 113.706 56.545 113.262 57.259C112.851 57.9115 112.585 58.5762 112.462 59.2471L112.236 60.4597H111.158L111.672 57.7884C111.863 56.7974 112.01 55.9911 112.112 55.3571H113.18C113.091 55.8126 112.916 56.4158 112.657 57.1728L112.677 57.1852C113.299 55.8926 114.055 55.2463 114.944 55.2463C115.703 55.2463 116.083 55.6402 116.083 56.4281C116.083 56.5881 116.062 56.7728 116.021 56.9697Z" fill="#06263D"/>
<path d="M122.72 55.4309C122.241 57.9238 121.927 59.598 121.776 60.4597H120.709C120.805 60.0288 120.986 59.4071 121.253 58.5885L121.232 58.5824C120.562 59.9057 119.803 60.5705 118.955 60.5705C118.182 60.5705 117.796 60.0473 117.796 58.9886C117.796 57.9607 118.056 57.1052 118.575 56.4281C119.157 55.6587 119.974 55.2771 121.028 55.2771C121.636 55.2771 122.2 55.3263 122.72 55.4309ZM121.499 56.2188C121.28 56.1572 121.061 56.1265 120.843 56.1265C120.213 56.1265 119.721 56.4281 119.366 57.019C119.058 57.5298 118.904 58.1207 118.904 58.7978C118.904 59.3518 119.058 59.6288 119.366 59.6288C119.762 59.6288 120.186 59.2656 120.637 58.5393C121.034 57.893 121.298 57.2405 121.428 56.5881L121.499 56.2188Z" fill="#06263D"/>
<path d="M129.142 56.8281C129.142 57.8622 128.882 58.7116 128.362 59.3886C127.781 60.158 126.964 60.5396 125.91 60.5396C125.302 60.5396 124.737 60.4843 124.218 60.3673L125.633 52.9688H126.7L126.259 55.3078C126.191 55.6586 126.003 56.2926 125.695 57.2159L125.715 57.2282C126.317 55.9048 127.069 55.2462 127.972 55.2462C128.752 55.2462 129.142 55.7756 129.142 56.8281ZM128.034 57.0189C128.034 56.4649 127.88 56.188 127.572 56.188C127.169 56.188 126.745 56.5511 126.3 57.2651C125.89 57.9237 125.627 58.57 125.51 59.204L125.438 59.5979C125.671 59.6595 125.89 59.6902 126.095 59.6902C126.724 59.6902 127.217 59.3886 127.572 58.7978C127.88 58.293 128.034 57.696 128.034 57.0189Z" fill="#06263D"/>
<path d="M133.112 52.9688L131.686 60.4596H130.609L132.035 52.9688H133.112Z" fill="#06263D"/>
<path d="M136.6 53.8737C136.593 54.0768 136.516 54.2492 136.369 54.3908C136.222 54.5323 136.053 54.6 135.861 54.6C135.67 54.6 135.511 54.5384 135.384 54.403C135.258 54.2738 135.198 54.1199 135.205 53.9414C135.211 53.7383 135.288 53.5659 135.436 53.4305C135.583 53.2951 135.755 53.2274 135.954 53.2274C136.138 53.2274 136.294 53.2889 136.42 53.4182C136.547 53.5413 136.607 53.6952 136.6 53.8737ZM136.169 55.3571L135.194 60.4597H134.117L135.092 55.3571H136.169Z" fill="#06263D"/>
<path d="M142.499 56.9697L141.832 60.4597H140.755L141.38 57.2283C141.415 57.0375 141.432 56.8774 141.432 56.742C141.432 56.3727 141.285 56.188 140.991 56.188C140.601 56.188 140.184 56.545 139.739 57.259C139.329 57.9115 139.062 58.5762 138.939 59.2471L138.713 60.4597H137.636L138.149 57.7884C138.34 56.7974 138.487 55.9911 138.59 55.3571H139.657C139.568 55.8126 139.394 56.4158 139.134 57.1728L139.154 57.1852C139.777 55.8926 140.533 55.2463 141.421 55.2463C142.18 55.2463 142.56 55.6402 142.56 56.4281C142.56 56.5881 142.54 56.7728 142.499 56.9697Z" fill="#06263D"/>
<path d="M149.197 55.4309L148.151 60.8598C147.871 62.3247 146.858 63.051 145.114 63.051C144.595 63.051 144.119 62.9833 143.688 62.8479L143.945 61.8138C144.355 62.0108 144.813 62.1093 145.319 62.1093C146.345 62.1093 146.95 61.6292 147.135 60.6751C147.231 60.1766 147.423 59.4933 147.71 58.6193H147.689C147.033 59.9242 146.28 60.5705 145.433 60.5705C144.66 60.5705 144.273 60.0473 144.273 58.9886C144.273 57.9607 144.533 57.1052 145.053 56.4281C145.641 55.6587 146.458 55.2771 147.504 55.2771C148.113 55.2771 148.678 55.3263 149.197 55.4309ZM147.977 56.2188C147.757 56.1572 147.539 56.1265 147.32 56.1265C146.691 56.1265 146.198 56.4281 145.843 57.019C145.535 57.5298 145.381 58.1207 145.381 58.7978C145.381 59.3518 145.535 59.6288 145.843 59.6288C146.24 59.6288 146.664 59.2656 147.115 58.5393C147.511 57.893 147.775 57.2405 147.904 56.5881L147.977 56.2188Z" fill="#06263D"/>
<path d="M159.733 53.5351L156.727 57.9853L156.255 60.4596H155.168L155.629 57.9853L154.358 53.5351H155.506L156.091 55.7202C156.187 56.0772 156.275 56.465 156.358 56.8897H156.378C156.495 56.6742 156.765 56.2434 157.189 55.5848L158.512 53.5351H159.733Z" fill="#06263D"/>
<path d="M165.108 57.1112C165.108 58.1268 164.8 58.9578 164.185 59.6164C163.597 60.2442 162.896 60.5581 162.082 60.5581C160.796 60.5581 160.153 59.9549 160.153 58.7362C160.153 57.7144 160.447 56.8773 161.036 56.2126C161.61 55.5725 162.318 55.2585 163.159 55.2585C164.459 55.2585 165.108 55.874 165.108 57.1112ZM163.969 57.2343C163.969 56.5388 163.645 56.1879 162.995 56.1879C162.496 56.1879 162.079 56.4403 161.744 56.9389C161.436 57.4067 161.282 57.9422 161.282 58.5577C161.282 59.2655 161.6 59.6164 162.236 59.6164C162.722 59.6164 163.132 59.3886 163.467 58.927C163.802 58.4653 163.969 57.8991 163.969 57.2343Z" fill="#06263D"/>
<path d="M171.735 55.3571L171.223 58.0284C171.181 58.2439 171.031 59.0563 170.771 60.4597H169.715C169.797 60.0227 169.968 59.4133 170.227 58.6439L170.207 58.6316C169.598 59.9242 168.846 60.5705 167.95 60.5705C167.191 60.5705 166.811 60.1765 166.811 59.3887C166.811 59.2287 166.832 59.044 166.873 58.8471L167.539 55.3571H168.607L167.991 58.5885C167.957 58.7855 167.939 58.9455 167.939 59.0748C167.939 59.4441 168.087 59.6288 168.381 59.6288C168.77 59.6288 169.188 59.2717 169.632 58.5577C170.043 57.9053 170.309 57.2406 170.432 56.5697L170.658 55.3571H171.735Z" fill="#06263D"/>
<path d="M176.813 55.2586L176.587 56.3111C176.533 56.2988 176.478 56.2927 176.424 56.2927C176.033 56.2927 175.644 56.6189 175.254 57.2652C174.885 57.8684 174.628 58.5577 174.485 59.3271L174.269 60.4597H173.192L173.705 57.7884C173.814 57.2282 173.962 56.4219 174.146 55.3571H175.193C175.117 55.8002 174.956 56.3727 174.71 57.0805L174.731 57.0928C175.025 56.4896 175.298 56.0465 175.551 55.7572C175.873 55.4125 176.222 55.234 176.598 55.234C176.666 55.234 176.738 55.2463 176.813 55.2586Z" fill="#06263D"/>
<path d="M186.169 54.8647C186.169 55.3386 186.022 55.751 185.728 56.0957C185.475 56.4035 185.143 56.6374 184.733 56.7974V56.8035C185.034 56.8774 185.272 57.0251 185.446 57.2652C185.62 57.4991 185.707 57.7699 185.707 58.0777C185.707 58.7547 185.441 59.321 184.907 59.7703C184.34 60.2504 183.588 60.4905 182.65 60.4905C182.486 60.4905 182.213 60.4843 181.83 60.4782C181.324 60.4659 180.972 60.4597 180.773 60.4597L182.086 53.5352C183.153 53.5106 183.85 53.5044 184.179 53.5044C185.506 53.5044 186.169 53.9599 186.169 54.8647ZM185 55.1109C185 54.6369 184.63 54.3969 183.892 54.3969C183.652 54.3969 183.362 54.4031 183.019 54.4154L182.619 56.465C182.742 56.4773 182.924 56.4773 183.163 56.4773C183.703 56.4773 184.145 56.3543 184.487 56.1142C184.828 55.868 185 55.5356 185 55.1109ZM184.538 58.1577C184.538 57.5914 184.097 57.3083 183.215 57.3083C182.818 57.3083 182.568 57.3144 182.465 57.3206L182.045 59.5241C182.23 59.5611 182.483 59.5733 182.804 59.5733C183.344 59.5733 183.775 59.4379 184.097 59.1548C184.391 58.8901 184.538 58.5578 184.538 58.1577Z" fill="#06263D"/>
<path d="M192.57 55.3571L192.058 58.0284C192.016 58.2439 191.866 59.0563 191.606 60.4597H190.55C190.632 60.0227 190.803 59.4133 191.062 58.6439L191.042 58.6316C190.433 59.9242 189.681 60.5705 188.785 60.5705C188.026 60.5705 187.646 60.1765 187.646 59.3887C187.646 59.2287 187.667 59.044 187.708 58.8471L188.374 55.3571H189.442L188.826 58.5885C188.792 58.7855 188.775 58.9455 188.775 59.0748C188.775 59.4441 188.922 59.6288 189.216 59.6288C189.606 59.6288 190.023 59.2717 190.467 58.5577C190.878 57.9053 191.144 57.2406 191.267 56.5697L191.493 55.3571H192.57Z" fill="#06263D"/>
<path d="M197.361 55.3385L197.156 56.2003C196.951 56.1264 196.708 56.0895 196.428 56.0895C195.819 56.0895 195.514 56.3049 195.514 56.7419C195.514 56.9389 195.641 57.142 195.894 57.3697C196.12 57.5667 196.349 57.7698 196.582 57.9668C196.835 58.2376 196.961 58.5392 196.961 58.8593C196.961 59.3148 196.773 59.7087 196.397 60.0288C195.98 60.3858 195.415 60.5581 194.704 60.5581C194.397 60.5581 194.106 60.5335 193.832 60.4781L194.017 59.5364C194.298 59.6225 194.567 59.6656 194.827 59.6656C195.498 59.6656 195.833 59.4379 195.833 58.9701C195.833 58.7731 195.71 58.57 195.463 58.3669C195.012 57.9853 194.779 57.7883 194.766 57.7821C194.52 57.5113 194.397 57.2036 194.397 56.8589C194.397 56.3911 194.571 56.0156 194.92 55.7202C195.296 55.4124 195.819 55.2585 196.489 55.2585C196.797 55.2585 197.088 55.2832 197.361 55.3385Z" fill="#06263D"/>
<path d="M201.269 53.8737C201.263 54.0768 201.186 54.2492 201.039 54.3908C200.891 54.5323 200.722 54.6 200.531 54.6C200.339 54.6 200.181 54.5384 200.054 54.403C199.928 54.2738 199.868 54.1199 199.875 53.9414C199.881 53.7383 199.958 53.5659 200.105 53.4305C200.253 53.2951 200.425 53.2274 200.623 53.2274C200.808 53.2274 200.963 53.2889 201.09 53.4182C201.216 53.5413 201.276 53.6952 201.269 53.8737ZM200.839 55.3571L199.864 60.4597H198.787L199.761 55.3571H200.839Z" fill="#06263D"/>
<path d="M207.168 56.9697L206.501 60.4597H205.424L206.05 57.2283C206.085 57.0375 206.101 56.8774 206.101 56.742C206.101 56.3727 205.954 56.188 205.66 56.188C205.27 56.188 204.853 56.545 204.408 57.259C203.999 57.9115 203.731 58.5762 203.608 59.2471L203.383 60.4597H202.306L202.819 57.7884C203.01 56.7974 203.157 55.9911 203.26 55.3571H204.327C204.238 55.8126 204.063 56.4158 203.803 57.1728L203.824 57.1852C204.446 55.8926 205.202 55.2463 206.091 55.2463C206.85 55.2463 207.23 55.6402 207.23 56.4281C207.23 56.5881 207.209 56.7728 207.168 56.9697Z" fill="#06263D"/>
<path d="M213.364 56.4588C213.364 57.5975 212.277 58.2068 210.102 58.2807C210.075 58.4592 210.061 58.6316 210.061 58.7977C210.061 59.1363 210.135 59.3702 210.282 59.4933C210.429 59.6164 210.697 59.6779 211.087 59.6779C211.572 59.6779 212.058 59.5794 212.544 59.3825V60.2442C211.976 60.4535 211.371 60.5581 210.728 60.5581C209.552 60.5581 208.963 59.998 208.963 58.8654C208.963 57.8437 209.232 56.982 209.769 56.2926C210.306 55.6032 210.981 55.2585 211.795 55.2585C212.335 55.2585 212.742 55.3816 213.016 55.6279C213.248 55.8371 213.364 56.1141 213.364 56.4588ZM212.287 56.6003C212.287 56.2495 212.082 56.0772 211.672 56.0772C211.323 56.0772 211.018 56.2187 210.759 56.508C210.519 56.7665 210.345 57.1051 210.236 57.5236C211.603 57.4744 212.287 57.1666 212.287 56.6003Z" fill="#06263D"/>
<path d="M218.063 55.3385L217.857 56.2003C217.652 56.1264 217.41 56.0895 217.129 56.0895C216.521 56.0895 216.217 56.3049 216.217 56.7419C216.217 56.9389 216.343 57.142 216.596 57.3697C216.822 57.5667 217.051 57.7698 217.283 57.9668C217.536 58.2376 217.663 58.5392 217.663 58.8593C217.663 59.3148 217.475 59.7087 217.099 60.0288C216.681 60.3858 216.117 60.5581 215.406 60.5581C215.098 60.5581 214.808 60.5335 214.534 60.4781L214.718 59.5364C214.999 59.6225 215.269 59.6656 215.529 59.6656C216.199 59.6656 216.534 59.4379 216.534 58.9701C216.534 58.7731 216.411 58.57 216.165 58.3669C215.714 57.9853 215.481 57.7883 215.467 57.7821C215.221 57.5113 215.098 57.2036 215.098 56.8589C215.098 56.3911 215.272 56.0156 215.621 55.7202C215.997 55.4124 216.521 55.2585 217.191 55.2585C217.499 55.2585 217.789 55.2832 218.063 55.3385Z" fill="#06263D"/>
<path d="M222.823 55.3385L222.618 56.2003C222.412 56.1264 222.17 56.0895 221.889 56.0895C221.28 56.0895 220.976 56.3049 220.976 56.7419C220.976 56.9389 221.103 57.142 221.356 57.3697C221.581 57.5667 221.811 57.7698 222.043 57.9668C222.296 58.2376 222.423 58.5392 222.423 58.8593C222.423 59.3148 222.234 59.7087 221.858 60.0288C221.442 60.3858 220.877 60.5581 220.166 60.5581C219.858 60.5581 219.567 60.5335 219.294 60.4781L219.479 59.5364C219.759 59.6225 220.029 59.6656 220.289 59.6656C220.959 59.6656 221.294 59.4379 221.294 58.9701C221.294 58.7731 221.171 58.57 220.925 58.3669C220.473 57.9853 220.241 57.7883 220.227 57.7821C219.981 57.5113 219.858 57.2036 219.858 56.8589C219.858 56.3911 220.033 56.0156 220.381 55.7202C220.757 55.4124 221.28 55.2585 221.951 55.2585C222.258 55.2585 222.55 55.2832 222.823 55.3385Z" fill="#06263D"/>
</svg>
